<?xml version="1.0" encoding="UTF-8" standalone="no"?>
<svg
   xmlns:dc="http://purl.org/dc/elements/1.1/"
   xmlns:cc="http://creativecommons.org/ns#"
   xmlns:rdf="http://www.w3.org/1999/02/22-rdf-syntax-ns#"
   xmlns:svg="http://www.w3.org/2000/svg"
   xmlns="http://www.w3.org/2000/svg"
   viewBox="0 0 768 768"
   height="768"
   width="768"
   xml:space="preserve"
   id="svg2"
   version="1.1"><metadata
     id="metadata8"><rdf:RDF><cc:Work
         rdf:about=""><dc:format>image/svg+xml</dc:format><dc:type
           rdf:resource="http://purl.org/dc/dcmitype/StillImage" /><dc:title></dc:title></cc:Work></rdf:RDF></metadata><defs
     id="defs6"><clipPath
       id="clipPath144"
       clipPathUnits="userSpaceOnUse"><path
         id="path142"
         d="M 720,633 V 5069 H 5184 V 633 Z" /></clipPath></defs><g
     transform="matrix(1.3333333,0,0,-1.3333333,0,768)"
     id="g10"><g
       transform="scale(0.1)"
       id="g12"><path
         id="path14"
         style="fill:#ffffff;fill-opacity:1;fill-rule:nonzero;stroke:none"
         d="M 0,0 H 5760 V 5760 H 0 Z" /><path
         id="path16"
         style="fill:#ffffff;fill-opacity:1;fill-rule:nonzero;stroke:none"
         d="m 720,633.59 h 4463.98 v 4435.2 H 720 Z" /><path
         id="path18"
         style="fill:none;stroke:#000000;stroke-width:8;stroke-linecap:butt;stroke-linejoin:round;stroke-miterlimit:10;stroke-dasharray:none;stroke-opacity:1"
         d="m 922.891,633.59 v -35" /><g
         transform="scale(10)"
         id="g20"><text
           id="text24"
           style="font-variant:normal;font-weight:normal;font-size:12px;font-family:'Liberation Sans';-inkscape-font-specification:LiberationSans;writing-mode:lr-tb;fill:#000000;fill-opacity:1;fill-rule:nonzero;stroke:none"
           transform="matrix(1,0,0,-1,78.9238,47.2352)"><tspan
             id="tspan22"
             y="0"
             x="0 7.6321559 11.448234 19.080391">0.00</tspan></text>
</g><path
         id="path26"
         style="fill:none;stroke:#000000;stroke-width:8;stroke-linecap:butt;stroke-linejoin:round;stroke-miterlimit:10;stroke-dasharray:none;stroke-opacity:1"
         d="m 1728.2,633.59 v -35" /><g
         transform="scale(10)"
         id="g28"><text
           id="text32"
           style="font-variant:normal;font-weight:normal;font-size:12px;font-family:'Liberation Sans';-inkscape-font-specification:LiberationSans;writing-mode:lr-tb;fill:#000000;fill-opacity:1;fill-rule:nonzero;stroke:none"
           transform="matrix(1,0,0,-1,159.454,47.2352)"><tspan
             id="tspan30"
             y="0"
             x="0 7.6321559 11.448234 19.080391">0.05</tspan></text>
</g><path
         id="path34"
         style="fill:none;stroke:#000000;stroke-width:8;stroke-linecap:butt;stroke-linejoin:round;stroke-miterlimit:10;stroke-dasharray:none;stroke-opacity:1"
         d="m 2533.52,633.59 v -35" /><g
         transform="scale(10)"
         id="g36"><text
           id="text40"
           style="font-variant:normal;font-weight:normal;font-size:12px;font-family:'Liberation Sans';-inkscape-font-specification:LiberationSans;writing-mode:lr-tb;fill:#000000;fill-opacity:1;fill-rule:nonzero;stroke:none"
           transform="matrix(1,0,0,-1,239.985,47.2352)"><tspan
             id="tspan38"
             y="0"
             x="0 7.6321559 11.448234 19.080391">0.10</tspan></text>
</g><path
         id="path42"
         style="fill:none;stroke:#000000;stroke-width:8;stroke-linecap:butt;stroke-linejoin:round;stroke-miterlimit:10;stroke-dasharray:none;stroke-opacity:1"
         d="m 3338.83,633.59 v -35" /><g
         transform="scale(10)"
         id="g44"><text
           id="text48"
           style="font-variant:normal;font-weight:normal;font-size:12px;font-family:'Liberation Sans';-inkscape-font-specification:LiberationSans;writing-mode:lr-tb;fill:#000000;fill-opacity:1;fill-rule:nonzero;stroke:none"
           transform="matrix(1,0,0,-1,320.516,47.2352)"><tspan
             id="tspan46"
             y="0"
             x="0 7.6321559 11.448234 19.080391">0.15</tspan></text>
</g><path
         id="path50"
         style="fill:none;stroke:#000000;stroke-width:8;stroke-linecap:butt;stroke-linejoin:round;stroke-miterlimit:10;stroke-dasharray:none;stroke-opacity:1"
         d="m 4144.14,633.59 v -35" /><g
         transform="scale(10)"
         id="g52"><text
           id="text56"
           style="font-variant:normal;font-weight:normal;font-size:12px;font-family:'Liberation Sans';-inkscape-font-specification:LiberationSans;writing-mode:lr-tb;fill:#000000;fill-opacity:1;fill-rule:nonzero;stroke:none"
           transform="matrix(1,0,0,-1,401.046,47.2352)"><tspan
             id="tspan54"
             y="0"
             x="0 7.6321559 11.448234 19.080391">0.20</tspan></text>
</g><path
         id="path58"
         style="fill:none;stroke:#000000;stroke-width:8;stroke-linecap:butt;stroke-linejoin:round;stroke-miterlimit:10;stroke-dasharray:none;stroke-opacity:1"
         d="m 4949.45,633.59 v -35" /><g
         transform="scale(10)"
         id="g60"><text
           id="text64"
           style="font-variant:normal;font-weight:normal;font-size:12px;font-family:'Liberation Sans';-inkscape-font-specification:LiberationSans;writing-mode:lr-tb;fill:#000000;fill-opacity:1;fill-rule:nonzero;stroke:none"
           transform="matrix(1,0,0,-1,481.577,47.2352)"><tspan
             id="tspan62"
             y="0"
             x="0 7.6321559 11.448234 19.080391">0.25</tspan></text>
</g><path
         id="path66"
         style="fill:none;stroke:#000000;stroke-width:8;stroke-linecap:butt;stroke-linejoin:round;stroke-miterlimit:10;stroke-dasharray:none;stroke-opacity:1"
         d="M 720,835.199 H 685" /><g
         transform="scale(10)"
         id="g68"><text
           id="text72"
           style="font-variant:normal;font-weight:normal;font-size:12px;font-family:'Liberation Sans';-inkscape-font-specification:LiberationSans;writing-mode:lr-tb;fill:#000000;fill-opacity:1;fill-rule:nonzero;stroke:none"
           transform="matrix(1,0,0,-1,19.1563,78.9574)"><tspan
             id="tspan70"
             y="0"
             x="0 7.6321559 15.264312 22.896467 30.528624 38.160782">100000</tspan></text>
</g><path
         id="path74"
         style="fill:none;stroke:#000000;stroke-width:8;stroke-linecap:butt;stroke-linejoin:round;stroke-miterlimit:10;stroke-dasharray:none;stroke-opacity:1"
         d="M 720,1332.46 H 685" /><g
         transform="scale(10)"
         id="g76"><text
           id="text80"
           style="font-variant:normal;font-weight:normal;font-size:12px;font-family:'Liberation Sans';-inkscape-font-specification:LiberationSans;writing-mode:lr-tb;fill:#000000;fill-opacity:1;fill-rule:nonzero;stroke:none"
           transform="matrix(1,0,0,-1,19.1563,128.682)"><tspan
             id="tspan78"
             y="0"
             x="0 7.6321559 15.264312 22.896467 30.528624 38.160782">102500</tspan></text>
</g><path
         id="path82"
         style="fill:none;stroke:#000000;stroke-width:8;stroke-linecap:butt;stroke-linejoin:round;stroke-miterlimit:10;stroke-dasharray:none;stroke-opacity:1"
         d="M 720,1829.69 H 685" /><g
         transform="scale(10)"
         id="g84"><text
           id="text88"
           style="font-variant:normal;font-weight:normal;font-size:12px;font-family:'Liberation Sans';-inkscape-font-specification:LiberationSans;writing-mode:lr-tb;fill:#000000;fill-opacity:1;fill-rule:nonzero;stroke:none"
           transform="matrix(1,0,0,-1,19.1563,178.407)"><tspan
             id="tspan86"
             y="0"
             x="0 7.6321559 15.264312 22.896467 30.528624 38.160782">105000</tspan></text>
</g><path
         id="path90"
         style="fill:none;stroke:#000000;stroke-width:8;stroke-linecap:butt;stroke-linejoin:round;stroke-miterlimit:10;stroke-dasharray:none;stroke-opacity:1"
         d="M 720,2326.95 H 685" /><g
         transform="scale(10)"
         id="g92"><text
           id="text96"
           style="font-variant:normal;font-weight:normal;font-size:12px;font-family:'Liberation Sans';-inkscape-font-specification:LiberationSans;writing-mode:lr-tb;fill:#000000;fill-opacity:1;fill-rule:nonzero;stroke:none"
           transform="matrix(1,0,0,-1,19.1563,228.132)"><tspan
             id="tspan94"
             y="0"
             x="0 7.6321559 15.264312 22.896467 30.528624 38.160782">107500</tspan></text>
</g><path
         id="path98"
         style="fill:none;stroke:#000000;stroke-width:8;stroke-linecap:butt;stroke-linejoin:round;stroke-miterlimit:10;stroke-dasharray:none;stroke-opacity:1"
         d="M 720,2824.22 H 685" /><g
         transform="scale(10)"
         id="g100"><text
           id="text104"
           style="font-variant:normal;font-weight:normal;font-size:12px;font-family:'Liberation Sans';-inkscape-font-specification:LiberationSans;writing-mode:lr-tb;fill:#000000;fill-opacity:1;fill-rule:nonzero;stroke:none"
           transform="matrix(1,0,0,-1,19.1563,277.857)"><tspan
             id="tspan102"
             y="0"
             x="0 7.6321559 15.264312 22.896467 30.528624 38.160782">110000</tspan></text>
</g><path
         id="path106"
         style="fill:none;stroke:#000000;stroke-width:8;stroke-linecap:butt;stroke-linejoin:round;stroke-miterlimit:10;stroke-dasharray:none;stroke-opacity:1"
         d="M 720,3321.45 H 685" /><g
         transform="scale(10)"
         id="g108"><text
           id="text112"
           style="font-variant:normal;font-weight:normal;font-size:12px;font-family:'Liberation Sans';-inkscape-font-specification:LiberationSans;writing-mode:lr-tb;fill:#000000;fill-opacity:1;fill-rule:nonzero;stroke:none"
           transform="matrix(1,0,0,-1,19.1563,327.582)"><tspan
             id="tspan110"
             y="0"
             x="0 7.6321559 15.264312 22.896467 30.528624 38.160782">112500</tspan></text>
</g><path
         id="path114"
         style="fill:none;stroke:#000000;stroke-width:8;stroke-linecap:butt;stroke-linejoin:round;stroke-miterlimit:10;stroke-dasharray:none;stroke-opacity:1"
         d="M 720,3818.71 H 685" /><g
         transform="scale(10)"
         id="g116"><text
           id="text120"
           style="font-variant:normal;font-weight:normal;font-size:12px;font-family:'Liberation Sans';-inkscape-font-specification:LiberationSans;writing-mode:lr-tb;fill:#000000;fill-opacity:1;fill-rule:nonzero;stroke:none"
           transform="matrix(1,0,0,-1,19.1563,377.307)"><tspan
             id="tspan118"
             y="0"
             x="0 7.6321559 15.264312 22.896467 30.528624 38.160782">115000</tspan></text>
</g><path
         id="path122"
         style="fill:none;stroke:#000000;stroke-width:8;stroke-linecap:butt;stroke-linejoin:round;stroke-miterlimit:10;stroke-dasharray:none;stroke-opacity:1"
         d="M 720,4315.94 H 685" /><g
         transform="scale(10)"
         id="g124"><text
           id="text128"
           style="font-variant:normal;font-weight:normal;font-size:12px;font-family:'Liberation Sans';-inkscape-font-specification:LiberationSans;writing-mode:lr-tb;fill:#000000;fill-opacity:1;fill-rule:nonzero;stroke:none"
           transform="matrix(1,0,0,-1,19.1563,427.032)"><tspan
             id="tspan126"
             y="0"
             x="0 7.6321559 15.264312 22.896467 30.528624 38.160782">117500</tspan></text>
</g><path
         id="path130"
         style="fill:none;stroke:#000000;stroke-width:8;stroke-linecap:butt;stroke-linejoin:round;stroke-miterlimit:10;stroke-dasharray:none;stroke-opacity:1"
         d="M 720,4813.2 H 685" /><g
         transform="scale(10)"
         id="g132"><text
           id="text136"
           style="font-variant:normal;font-weight:normal;font-size:12px;font-family:'Liberation Sans';-inkscape-font-specification:LiberationSans;writing-mode:lr-tb;fill:#000000;fill-opacity:1;fill-rule:nonzero;stroke:none"
           transform="matrix(1,0,0,-1,19.1563,476.757)"><tspan
             id="tspan134"
             y="0"
             x="0 7.6321559 15.264312 22.896467 30.528624 38.160782">120000</tspan></text>
</g><g
         id="g138"><g
           clip-path="url(#clipPath144)"
           id="g140"><path
             id="path146"
             style="fill:none;stroke:#000000;stroke-width:15;stroke-linecap:square;stroke-linejoin:round;stroke-miterlimit:10;stroke-dasharray:none;stroke-opacity:1"
             d="m 922.891,835.199 15.347,11.91 17.383,17.731 13.758,12.582 30.07,24.457 24.461,23.742 29.61,24.07 24.92,24.289 29.1,23.719 25.43,24.801 28.51,23.28 25.98,25.43 27.97,22.81 26.56,26.06 27.27,22.26 27.34,26.88 26.37,21.52 28.4,27.89 25.08,20.43 29.96,29.38 23.2,18.79 32.69,31.79 19.93,16.06 37.73,36.01 15.2,12.35 19.1,20.08 13.01,12.18 27.46,23.01 27.03,27.11 26.64,22.3 27.89,28.01 25.66,21.53 28.99,29.1 24.41,20.39 30.59,30.66 22.5,18.71 33.32,33.13 19.33,15.97 38.17,37.35 14.84,12.42 20.98,22.46 12.22,11.45 24.89,21.17 29.84,30.39 23.52,20 31.56,32.07 21.44,18.16 34.57,34.81 18.17,15.27 39.57,39.14 13.91,11.99 42.42,41.61 12.34,10.97 39.49,39.34 14.03,12.15 42.38,41.87 12.38,11.14 39.57,39.64 14.03,12.27 42.26,42.11 12.46,11.21 39.77,40.12 13.94,12.26 42.07,42.27 12.62,11.4 40,40.63 13.83,12.3 41.91,42.43 12.74,11.56 40.35,41.21 13.67,12.26 41.68,42.54 12.93,11.76 40.63,41.76 13.59,12.34 41.48,42.62 13.09,12.03 40.9,42.27 13.51,12.34 41.33,42.81 13.32,12.27 41.02,42.69 13.55,12.5 41.17,42.97 13.56,12.54 41.09,43.09 13.67,12.69 41.06,43.21 13.79,12.81 41.05,43.32 13.87,12.97 41.02,43.44 14.02,13.12 40.94,43.56 14.18,13.32 40.86,43.63 14.37,13.51 40.74,43.68 14.65,13.82 40.55,43.64 14.96,14.18 40.31,43.51 15.39,14.65 39.85,43.28 16.09,15.31 39.1,42.7 17.19,16.48 37.58,41.41 19.49,18.83 34.14,38.08 26.37,26.37 29.02,32.35 31.76,32.38 33.71,35.7 13.12,13.09 38.6,42.85 20.35,20.12 31.13,35.23 13.56,12.66 11.64,12.11 33.79,38.2 46.64,49.02 17.18,18.6 17.58,17.54 33.28,37.69 13.32,12.62 11.8,12.38 21.52,23.95 23.72,25.27 12.81,13.16 22.93,25.43 23.51,25.16 12.78,13.24 20.39,22.5 71.36,77.89 11.92,12.46 16.84,17.23 17.5,19.3 12.85,14.41 13.04,14.14 18.4,18.95 15.71,17.38 13.94,15.16 14.14,15.54 18.2,18.83 15.36,16.95 15,16.02 15,16.56 17.65,18.36 15.24,16.88 16.44,17.11 15.74,17.5 17.03,17.77 15.2,16.83 18.75,19.03 16.13,18.01 16.6,17.42 15,16.68 23.05,22.73 15.47,17.31 16.88,17.81 14.45,16.09 18.94,15.78 11.37,11.22 26.56,28.98 11.53,13.36 11.64,12.66 12.07,9.49 8.32,4.22 6.21,0.5 2.3,0.28" /></g></g><path
         id="path148"
         style="fill:none;stroke:#000000;stroke-width:8;stroke-linecap:square;stroke-linejoin:miter;stroke-miterlimit:10;stroke-dasharray:none;stroke-opacity:1"
         d="m 720,633.59 v 4435.2" /><path
         id="path150"
         style="fill:none;stroke:#000000;stroke-width:8;stroke-linecap:square;stroke-linejoin:miter;stroke-miterlimit:10;stroke-dasharray:none;stroke-opacity:1"
         d="m 5183.98,633.59 v 4435.2" /><path
         id="path152"
         style="fill:none;stroke:#000000;stroke-width:8;stroke-linecap:square;stroke-linejoin:miter;stroke-miterlimit:10;stroke-dasharray:none;stroke-opacity:1"
         d="M 720,633.59 H 5183.98" /><path
         id="path154"
         style="fill:none;stroke:#000000;stroke-width:8;stroke-linecap:square;stroke-linejoin:miter;stroke-miterlimit:10;stroke-dasharray:none;stroke-opacity:1"
         d="M 720,5068.79 H 5183.98" /><g
         transform="scale(10)"
         id="g156"><text
           id="text160"
           style="font-variant:normal;font-size:17.28000069px;font-family:f-1;-inkscape-font-specification:f-1-0;writing-mode:lr-tb;fill:#000000;fill-opacity:1;fill-rule:nonzero;stroke:none"
           transform="matrix(1,0,0,-1,266.502,519.982)"><tspan
             id="tspan158"
             y="0"
             x="0 10.8864 20.80512 29.44512 38.085121">Speed</tspan></text>
<text
           id="text164"
           style="font-variant:normal;font-size:17.28000069px;font-family:f-1;-inkscape-font-specification:f-1-0;writing-mode:lr-tb;fill:#000000;fill-opacity:1;fill-rule:nonzero;stroke:none"
           transform="matrix(0,1,1,0,-1.94844,185.621)"><tspan
             id="tspan162"
             y="0"
             x="0">p</tspan></text>
<text
           id="text168"
           style="font-variant:normal;font-size:17.28000069px;font-family:f-1;-inkscape-font-specification:f-1-0;writing-mode:lr-tb;fill:#000000;fill-opacity:1;fill-rule:nonzero;stroke:none"
           transform="matrix(1,0,0,-1,288.921,24.9238)"><tspan
             id="tspan166"
             y="0"
             x="0 11.52576 16.96896 32.330879 40.970879 45.774719 51.528961 59.529598">Time [s]</tspan></text>
</g></g></g></svg>