<?xml version="1.0" encoding="UTF-8" standalone="no"?>
<svg
   xmlns:dc="http://purl.org/dc/elements/1.1/"
   xmlns:cc="http://creativecommons.org/ns#"
   xmlns:rdf="http://www.w3.org/1999/02/22-rdf-syntax-ns#"
   xmlns:svg="http://www.w3.org/2000/svg"
   xmlns="http://www.w3.org/2000/svg"
   viewBox="0 0 768 768"
   height="768"
   width="768"
   xml:space="preserve"
   id="svg1710"
   version="1.1"><metadata
     id="metadata1716"><rdf:RDF><cc:Work
         rdf:about=""><dc:format>image/svg+xml</dc:format><dc:type
           rdf:resource="http://purl.org/dc/dcmitype/StillImage" /><dc:title></dc:title></cc:Work></rdf:RDF></metadata><defs
     id="defs1714"><clipPath
       id="clipPath1836"
       clipPathUnits="userSpaceOnUse"><path
         id="path1834"
         d="M 720,633 V 5069 H 5184 V 633 Z" /></clipPath></defs><g
     transform="matrix(1.3333333,0,0,-1.3333333,0,768)"
     id="g1718"><g
       transform="scale(0.1)"
       id="g1720"><path
         id="path1722"
         style="fill:#ffffff;fill-opacity:1;fill-rule:nonzero;stroke:none"
         d="M 0,0 H 5760 V 5760 H 0 Z" /><path
         id="path1724"
         style="fill:#ffffff;fill-opacity:1;fill-rule:nonzero;stroke:none"
         d="m 720,633.59 h 4463.98 v 4435.2 H 720 Z" /><path
         id="path1726"
         style="fill:none;stroke:#000000;stroke-width:8;stroke-linecap:butt;stroke-linejoin:round;stroke-miterlimit:10;stroke-dasharray:none;stroke-opacity:1"
         d="m 791.879,633.59 v -35" /><g
         transform="scale(10)"
         id="g1728"><text
           id="text1732"
           style="font-variant:normal;font-weight:normal;font-size:12px;font-family:'Liberation Sans';-inkscape-font-specification:LiberationSans;writing-mode:lr-tb;fill:#000000;fill-opacity:1;fill-rule:nonzero;stroke:none"
           transform="matrix(1,0,0,-1,65.8191,47.2352)"><tspan
             id="tspan1730"
             y="0"
             x="0 7.6321559 11.448234 19.080391">0.00</tspan></text>
</g><path
         id="path1734"
         style="fill:none;stroke:#000000;stroke-width:8;stroke-linecap:butt;stroke-linejoin:round;stroke-miterlimit:10;stroke-dasharray:none;stroke-opacity:1"
         d="m 1365.23,633.59 v -35" /><g
         transform="scale(10)"
         id="g1736"><text
           id="text1740"
           style="font-variant:normal;font-weight:normal;font-size:12px;font-family:'Liberation Sans';-inkscape-font-specification:LiberationSans;writing-mode:lr-tb;fill:#000000;fill-opacity:1;fill-rule:nonzero;stroke:none"
           transform="matrix(1,0,0,-1,123.156,47.2352)"><tspan
             id="tspan1738"
             y="0"
             x="0 7.6321559 11.448234 19.080391">0.05</tspan></text>
</g><path
         id="path1742"
         style="fill:none;stroke:#000000;stroke-width:8;stroke-linecap:butt;stroke-linejoin:round;stroke-miterlimit:10;stroke-dasharray:none;stroke-opacity:1"
         d="m 1938.59,633.59 v -35" /><g
         transform="scale(10)"
         id="g1744"><text
           id="text1748"
           style="font-variant:normal;font-weight:normal;font-size:12px;font-family:'Liberation Sans';-inkscape-font-specification:LiberationSans;writing-mode:lr-tb;fill:#000000;fill-opacity:1;fill-rule:nonzero;stroke:none"
           transform="matrix(1,0,0,-1,180.492,47.2352)"><tspan
             id="tspan1746"
             y="0"
             x="0 7.6321559 11.448234 19.080391">0.10</tspan></text>
</g><path
         id="path1750"
         style="fill:none;stroke:#000000;stroke-width:8;stroke-linecap:butt;stroke-linejoin:round;stroke-miterlimit:10;stroke-dasharray:none;stroke-opacity:1"
         d="m 2511.95,633.59 v -35" /><g
         transform="scale(10)"
         id="g1752"><text
           id="text1756"
           style="font-variant:normal;font-weight:normal;font-size:12px;font-family:'Liberation Sans';-inkscape-font-specification:LiberationSans;writing-mode:lr-tb;fill:#000000;fill-opacity:1;fill-rule:nonzero;stroke:none"
           transform="matrix(1,0,0,-1,237.829,47.2352)"><tspan
             id="tspan1754"
             y="0"
             x="0 7.6321559 11.448234 19.080391">0.15</tspan></text>
</g><path
         id="path1758"
         style="fill:none;stroke:#000000;stroke-width:8;stroke-linecap:butt;stroke-linejoin:round;stroke-miterlimit:10;stroke-dasharray:none;stroke-opacity:1"
         d="m 3085.31,633.59 v -35" /><g
         transform="scale(10)"
         id="g1760"><text
           id="text1764"
           style="font-variant:normal;font-weight:normal;font-size:12px;font-family:'Liberation Sans';-inkscape-font-specification:LiberationSans;writing-mode:lr-tb;fill:#000000;fill-opacity:1;fill-rule:nonzero;stroke:none"
           transform="matrix(1,0,0,-1,295.165,47.2352)"><tspan
             id="tspan1762"
             y="0"
             x="0 7.6321559 11.448234 19.080391">0.20</tspan></text>
</g><path
         id="path1766"
         style="fill:none;stroke:#000000;stroke-width:8;stroke-linecap:butt;stroke-linejoin:round;stroke-miterlimit:10;stroke-dasharray:none;stroke-opacity:1"
         d="m 3658.67,633.59 v -35" /><g
         transform="scale(10)"
         id="g1768"><text
           id="text1772"
           style="font-variant:normal;font-weight:normal;font-size:12px;font-family:'Liberation Sans';-inkscape-font-specification:LiberationSans;writing-mode:lr-tb;fill:#000000;fill-opacity:1;fill-rule:nonzero;stroke:none"
           transform="matrix(1,0,0,-1,352.502,47.2352)"><tspan
             id="tspan1770"
             y="0"
             x="0 7.6321559 11.448234 19.080391">0.25</tspan></text>
</g><path
         id="path1774"
         style="fill:none;stroke:#000000;stroke-width:8;stroke-linecap:butt;stroke-linejoin:round;stroke-miterlimit:10;stroke-dasharray:none;stroke-opacity:1"
         d="m 4232.03,633.59 v -35" /><g
         transform="scale(10)"
         id="g1776"><text
           id="text1780"
           style="font-variant:normal;font-weight:normal;font-size:12px;font-family:'Liberation Sans';-inkscape-font-specification:LiberationSans;writing-mode:lr-tb;fill:#000000;fill-opacity:1;fill-rule:nonzero;stroke:none"
           transform="matrix(1,0,0,-1,409.838,47.2352)"><tspan
             id="tspan1778"
             y="0"
             x="0 7.6321559 11.448234 19.080391">0.30</tspan></text>
</g><path
         id="path1782"
         style="fill:none;stroke:#000000;stroke-width:8;stroke-linecap:butt;stroke-linejoin:round;stroke-miterlimit:10;stroke-dasharray:none;stroke-opacity:1"
         d="m 4805.43,633.59 v -35" /><g
         transform="scale(10)"
         id="g1784"><text
           id="text1788"
           style="font-variant:normal;font-weight:normal;font-size:12px;font-family:'Liberation Sans';-inkscape-font-specification:LiberationSans;writing-mode:lr-tb;fill:#000000;fill-opacity:1;fill-rule:nonzero;stroke:none"
           transform="matrix(1,0,0,-1,467.175,47.2352)"><tspan
             id="tspan1786"
             y="0"
             x="0 7.6321559 11.448234 19.080391">0.35</tspan></text>
</g><path
         id="path1790"
         style="fill:none;stroke:#000000;stroke-width:8;stroke-linecap:butt;stroke-linejoin:round;stroke-miterlimit:10;stroke-dasharray:none;stroke-opacity:1"
         d="M 720,955.98 H 685" /><g
         transform="scale(10)"
         id="g1792"><text
           id="text1796"
           style="font-variant:normal;font-weight:normal;font-size:12px;font-family:'Liberation Sans';-inkscape-font-specification:LiberationSans;writing-mode:lr-tb;fill:#000000;fill-opacity:1;fill-rule:nonzero;stroke:none"
           transform="matrix(1,0,0,-1,34.4375,91.0348)"><tspan
             id="tspan1794"
             y="0"
             x="0 7.6321559 15.264312 22.896467">1500</tspan></text>
</g><path
         id="path1798"
         style="fill:none;stroke:#000000;stroke-width:8;stroke-linecap:butt;stroke-linejoin:round;stroke-miterlimit:10;stroke-dasharray:none;stroke-opacity:1"
         d="M 720,1901.05 H 685" /><g
         transform="scale(10)"
         id="g1800"><text
           id="text1804"
           style="font-variant:normal;font-weight:normal;font-size:12px;font-family:'Liberation Sans';-inkscape-font-specification:LiberationSans;writing-mode:lr-tb;fill:#000000;fill-opacity:1;fill-rule:nonzero;stroke:none"
           transform="matrix(1,0,0,-1,34.4375,185.544)"><tspan
             id="tspan1802"
             y="0"
             x="0 7.6321559 15.264312 22.896467">2000</tspan></text>
</g><path
         id="path1806"
         style="fill:none;stroke:#000000;stroke-width:8;stroke-linecap:butt;stroke-linejoin:round;stroke-miterlimit:10;stroke-dasharray:none;stroke-opacity:1"
         d="M 720,2846.17 H 685" /><g
         transform="scale(10)"
         id="g1808"><text
           id="text1812"
           style="font-variant:normal;font-weight:normal;font-size:12px;font-family:'Liberation Sans';-inkscape-font-specification:LiberationSans;writing-mode:lr-tb;fill:#000000;fill-opacity:1;fill-rule:nonzero;stroke:none"
           transform="matrix(1,0,0,-1,34.4375,280.053)"><tspan
             id="tspan1810"
             y="0"
             x="0 7.6321559 15.264312 22.896467">2500</tspan></text>
</g><path
         id="path1814"
         style="fill:none;stroke:#000000;stroke-width:8;stroke-linecap:butt;stroke-linejoin:round;stroke-miterlimit:10;stroke-dasharray:none;stroke-opacity:1"
         d="M 720,3791.25 H 685" /><g
         transform="scale(10)"
         id="g1816"><text
           id="text1820"
           style="font-variant:normal;font-weight:normal;font-size:12px;font-family:'Liberation Sans';-inkscape-font-specification:LiberationSans;writing-mode:lr-tb;fill:#000000;fill-opacity:1;fill-rule:nonzero;stroke:none"
           transform="matrix(1,0,0,-1,34.4375,374.562)"><tspan
             id="tspan1818"
             y="0"
             x="0 7.6321559 15.264312 22.896467">3000</tspan></text>
</g><path
         id="path1822"
         style="fill:none;stroke:#000000;stroke-width:8;stroke-linecap:butt;stroke-linejoin:round;stroke-miterlimit:10;stroke-dasharray:none;stroke-opacity:1"
         d="M 720,4736.33 H 685" /><g
         transform="scale(10)"
         id="g1824"><text
           id="text1828"
           style="font-variant:normal;font-weight:normal;font-size:12px;font-family:'Liberation Sans';-inkscape-font-specification:LiberationSans;writing-mode:lr-tb;fill:#000000;fill-opacity:1;fill-rule:nonzero;stroke:none"
           transform="matrix(1,0,0,-1,34.4375,469.071)"><tspan
             id="tspan1826"
             y="0"
             x="0 7.6321559 15.264312 22.896467">3500</tspan></text>
</g><g
         id="g1830"><g
           clip-path="url(#clipPath1836)"
           id="g1832"><path
             id="path1838"
             style="fill:none;stroke:#000000;stroke-width:15;stroke-linecap:square;stroke-linejoin:round;stroke-miterlimit:10;stroke-dasharray:none;stroke-opacity:1"
             d="m 791.879,893.051 14.801,4.609 18.91,5 17.648,5.66 17.621,4.692 18.551,5.968 16.879,4.54 18.981,6.21 16.41,4.45 19.218,6.371 16.133,4.41 19.297,6.449 15.942,4.41 19.33,6.52 15.78,4.461 19.34,6.558 15.66,4.493 19.26,6.64 15.59,4.488 19.25,6.719 15.47,4.501 19.22,6.75 15.35,4.53 19.22,6.88 15.24,4.53 19.18,6.91 15.15,4.58 19.14,6.99 15.04,4.61 19.1,7.03 14.93,4.65 19.06,7.11 14.84,4.64 19.03,7.19 14.76,4.69 18.99,7.26 14.64,4.69 18.99,7.35 14.53,4.68 18.94,7.43 14.42,4.72 18.9,7.5 14.34,4.77 18.87,7.58 14.22,4.76 18.83,7.66 14.14,4.8 18.78,7.74 14.03,4.8 18.75,7.81 13.94,4.89 18.71,7.85 13.83,4.88 18.71,7.97 13.71,4.92 18.68,8.05 13.63,4.96 18.59,8.09 13.56,5 18.59,8.2 13.4,5 18.55,8.28 13.32,5.04 18.56,8.36 13.16,5.08 18.52,8.43 13.12,5.08 18.44,8.56 13.01,5.11 18.44,8.64 12.89,5.15 18.4,8.75 12.81,5.16 18.36,8.83 12.69,5.19 18.32,8.91 12.62,5.23 18.28,9.03 12.5,5.23 18.24,9.14 12.43,5.27 18.2,9.22 12.34,5.32 18.13,9.29 12.22,5.35 18.17,9.42 12.11,5.39 18.08,9.53 12.04,5.39 18.04,9.61 11.92,5.47 18,9.73 11.88,5.46 17.93,9.81 11.76,5.51 17.93,9.96 11.64,5.54 17.89,10 11.56,5.59 17.81,10.16 11.49,5.62 17.77,10.28 11.41,5.62 17.73,10.39 11.29,5.7 17.69,10.47 11.22,5.75 17.61,10.58 11.14,5.78 17.61,10.71 11.02,5.82 17.54,10.82 10.94,5.86 17.5,10.93 10.85,5.9 17.47,11.1 10.78,5.89 17.38,11.21 10.7,5.98 17.35,11.33 10.58,6.01 17.31,11.45 10.5,6.05 17.23,11.57 10.47,6.13 17.19,11.68 10.35,6.17 17.15,11.84 10.27,6.17 17.07,11.95 10.2,6.25 17.03,12.11 10.12,6.29 16.95,12.23 10.04,6.37 16.87,12.38 10,6.4 16.84,12.5 9.88,6.45 16.8,12.66 9.8,6.52 16.72,12.77 9.77,6.56 16.64,12.93 9.69,6.65 16.56,13.04 9.61,6.68 16.52,13.24 9.53,6.72 16.49,13.4 9.45,6.8 16.41,13.51 9.37,6.88 16.33,13.67 9.33,6.91 16.25,13.83 9.26,7 16.17,13.98 9.22,7.07 16.1,14.14 9.14,7.15 16.05,14.3 9.06,7.22 15.94,14.46 9.03,7.26 15.89,14.65 8.95,7.34 15.82,14.81 8.91,7.42 15.74,14.96 8.83,7.5 15.62,15.12 8.79,7.62 15.59,15.31 8.71,7.65 15.51,15.47 8.67,7.78 15.43,15.66 8.59,7.85 15.35,15.82 8.56,7.93 15.23,16.02 8.52,8.04 15.15,16.18 8.48,8.12 15.08,16.41 8.4,8.24 15,16.52 8.36,8.36 14.92,16.72 8.28,8.44 14.84,16.95 8.24,8.56 14.73,17.14 8.2,8.64 14.69,17.34 8.13,8.75 14.61,17.54 8.08,8.87 14.49,17.77 8.05,8.99 14.42,17.93 7.96,9.1 14.34,18.16 7.93,9.26 14.26,18.36 7.89,9.37 14.14,18.56 7.85,9.53 14.06,18.75 7.81,9.65 13.95,19.02 7.77,9.77 13.87,19.21 7.74,9.93 13.75,19.45 7.69,10.08 13.67,19.69 7.66,10.19 13.55,19.92 7.62,10.39 13.48,20.16 7.58,10.51 13.39,20.39 7.54,10.7 13.28,20.63 7.5,10.86 13.17,20.86 7.5,11.05 13.05,21.09 7.46,11.25 12.96,21.37 7.39,11.41 12.89,21.6 7.38,11.64 12.74,21.83 7.34,11.8 12.66,22.11 7.34,12.03 12.54,22.39 7.26,12.22 12.46,22.66 7.27,12.42 12.34,22.93 7.23,12.66 12.23,23.2 7.18,12.89 12.15,23.44 7.15,13.16 12.03,23.71 7.11,13.4 11.96,24.02 7.1,13.64 11.8,24.29 7.07,13.91 11.72,24.61 7.03,14.18 11.6,24.84 7.03,14.49 11.49,25.16 6.99,14.77 11.37,25.47 6.99,15.03 11.25,25.79 6.95,15.35 11.18,26.09 6.91,15.67 11.05,26.44 6.92,15.98 10.94,26.72 6.83,16.29 10.86,27.1 6.84,16.64 10.74,27.43 6.8,16.99 10.62,27.77 6.8,17.35 10.51,28.12 6.75,17.74 10.39,28.43 6.72,18.13 10.32,28.83 6.71,18.51 10.16,29.18 6.68,18.95 10.08,29.57 6.68,19.33 9.96,29.93 6.6,19.8 9.88,30.31 6.61,20.28 9.76,30.66 6.56,20.74 9.65,31.06 6.56,21.25 9.54,31.48 6.52,21.76 9.41,31.83 6.53,22.31 9.29,32.26 6.49,22.82 9.22,32.69 6.44,23.4 9.1,33.13 6.41,23.98 8.98,33.56 6.45,24.6 8.87,33.95 6.36,25.23 8.79,34.42 6.37,25.94 8.67,34.84 6.33,26.68 8.55,35.23 6.33,27.43 8.44,35.66 6.29,28.24 8.36,36.1 6.29,29.1 8.2,36.56 6.33,30.04 8.08,36.95 6.29,31.13 8.05,37.35 6.33,32.46 7.93,37.77 6.4,34.34 7.97,38.55 7.03,39.26 19.42,101.8 6.37,36.6 8.12,43.36 7.89,48.05 24.3,143.16" /></g></g><path
         id="path1840"
         style="fill:none;stroke:#000000;stroke-width:8;stroke-linecap:square;stroke-linejoin:miter;stroke-miterlimit:10;stroke-dasharray:none;stroke-opacity:1"
         d="m 720,633.59 v 4435.2" /><path
         id="path1842"
         style="fill:none;stroke:#000000;stroke-width:8;stroke-linecap:square;stroke-linejoin:miter;stroke-miterlimit:10;stroke-dasharray:none;stroke-opacity:1"
         d="m 5183.98,633.59 v 4435.2" /><path
         id="path1844"
         style="fill:none;stroke:#000000;stroke-width:8;stroke-linecap:square;stroke-linejoin:miter;stroke-miterlimit:10;stroke-dasharray:none;stroke-opacity:1"
         d="M 720,633.59 H 5183.98" /><path
         id="path1846"
         style="fill:none;stroke:#000000;stroke-width:8;stroke-linecap:square;stroke-linejoin:miter;stroke-miterlimit:10;stroke-dasharray:none;stroke-opacity:1"
         d="M 720,5068.79 H 5183.98" /><g
         transform="scale(10)"
         id="g1848"><text
           id="text1852"
           style="font-variant:normal;font-size:17.28000069px;font-family:f-1;-inkscape-font-specification:f-1-0;writing-mode:lr-tb;fill:#000000;fill-opacity:1;fill-rule:nonzero;stroke:none"
           transform="matrix(1,0,0,-1,254.36,520.632)"><tspan
             id="tspan1850"
             y="0"
             x="0 12.47616 22.083839 29.756161 35.19936 44.807041 54.414719 59.857922 68.497917 73.301758">Variable I</tspan></text>
<text
           id="text1856"
           style="font-variant:normal;font-size:17.28000069px;font-family:f-1;-inkscape-font-specification:f-1-0;writing-mode:lr-tb;fill:#000000;fill-opacity:1;fill-rule:nonzero;stroke:none"
           transform="matrix(0,1,1,0,24.7578,272.07)"><tspan
             id="tspan1854"
             y="0"
             x="0 7.0329599 11.8368 17.59104 30.0672">I [A]</tspan></text>
<text
           id="text1860"
           style="font-variant:normal;font-size:17.28000069px;font-family:f-1;-inkscape-font-specification:f-1-0;writing-mode:lr-tb;fill:#000000;fill-opacity:1;fill-rule:nonzero;stroke:none"
           transform="matrix(1,0,0,-1,275.906,20.9324)"><tspan
             id="tspan1858"
             y="0"
             x="0 11.52576 16.96896 32.330879 40.970879 45.774719 51.528961 59.529598">Time [s]</tspan></text>
</g></g></g></svg>