<?xml version="1.0" encoding="UTF-8"?>
<!DOCTYPE svg PUBLIC "-//W3C//DTD SVG 1.1//EN" "http://www.w3.org/Graphics/SVG/1.1/DTD/svg11.dtd">
<svg version="1.1" xmlns="http://www.w3.org/2000/svg" xmlns:xlink="http://www.w3.org/1999/xlink" x="0" y="0" width="600.447" height="114.375" viewBox="0, 0, 600.447, 114.375">
  <g id="Background">
    <rect x="0" y="0" width="600.447" height="114.375" fill="#FFFFFF"/>
  </g>
  <g id="Layer_1">
    <g>
      <path d="M227.089,46.942 C227.187,47.401 227.242,47.89 227.242,48.38 C227.242,52.042 224.273,55.004 220.618,55.004 C216.96,55.004 213.991,52.042 213.991,48.38 C213.991,44.717 216.96,41.75 220.618,41.75 C223.783,41.75 226.425,43.971 227.089,46.942" fill="#DA322A"/>
      <path d="M227.089,63.157 C227.187,63.618 227.242,64.103 227.242,64.596 C227.242,68.258 224.273,71.228 220.618,71.228 C216.96,71.228 213.991,68.258 213.991,64.596 C213.991,60.935 216.96,57.971 220.618,57.971 C223.783,57.971 226.425,60.19 227.089,63.157" fill="#DA322A"/>
      <path d="M247.352,41.972 L247.352,60.009 C247.352,64.328 248.952,66.408 252.911,66.408 C256.911,66.408 258.51,64.368 258.51,60.009 L258.51,41.972 L264.429,41.972 L264.429,60.649 C264.429,67.767 260.31,71.607 252.951,71.607 C245.513,71.607 241.393,67.767 241.393,60.649 L241.393,41.972 z" fill="#17170E"/>
      <path d="M269.413,49.57 L274.972,49.57 L274.972,52.09 C276.572,50.05 278.731,49.01 281.411,49.01 C286.09,49.01 288.41,51.449 288.41,56.329 L288.41,70.806 L282.731,70.806 L282.731,57.968 C282.731,55.089 281.891,53.729 279.452,53.729 C276.812,53.729 275.092,55.409 275.092,58.209 L275.092,70.806 L269.413,70.806 z" fill="#17170E"/>
      <path d="M293,49.57 L298.679,49.57 L298.679,70.806 L293,70.806 z M293,42.051 L298.679,42.051 L298.679,47.21 L293,47.21 z" fill="#17170E"/>
      <path d="M301.036,49.57 L307.315,49.57 L311.674,64.807 L316.074,49.57 L322.073,49.57 L314.474,70.806 L308.675,70.806 z" fill="#17170E"/>
      <path d="M336.865,57.969 C336.785,55.09 335.305,53.57 332.666,53.57 C330.226,53.57 328.746,55.09 328.507,57.969 z M342.464,64.368 C341.304,68.807 337.665,71.527 332.626,71.527 C326.587,71.527 322.628,67.207 322.628,60.049 C322.628,53.09 326.427,48.811 332.546,48.811 C339.025,48.811 342.744,52.89 342.744,60.209 C342.744,60.689 342.744,61.169 342.704,61.688 L328.507,61.688 C328.667,65.008 330.146,66.728 332.906,66.728 C334.825,66.728 336.065,66.008 336.785,64.368 z" fill="#17170E"/>
      <path d="M346.299,49.57 L351.578,49.57 L351.578,53.209 C353.058,50.29 354.978,48.97 357.697,48.97 C357.977,48.97 358.257,48.97 358.537,49.01 L358.537,54.769 L356.657,54.769 C353.578,54.769 351.978,56.369 351.978,59.568 L351.978,70.806 L346.299,70.806 z" fill="#17170E"/>
      <path d="M365.898,63.888 C365.978,66.048 367.418,67.088 370.337,67.088 C372.617,67.088 373.816,66.288 373.816,64.968 C373.816,63.128 371.977,63.248 368.217,62.288 C363.218,61.009 360.859,59.489 360.859,55.889 C360.859,51.61 364.138,48.811 369.577,48.811 C375.296,48.811 378.656,51.49 378.856,56.05 L373.336,56.05 C373.256,54.25 371.937,53.21 369.617,53.21 C367.458,53.21 366.418,53.85 366.418,55.17 C366.418,56.649 368.177,56.809 372.217,57.769 C377.136,58.929 379.536,60.289 379.536,64.128 C379.536,68.927 376.096,71.527 369.577,71.527 C363.658,71.527 360.219,68.687 360.219,64.128 L360.219,63.888 z" fill="#17170E"/>
      <path d="M383.106,49.57 L388.785,49.57 L388.785,70.806 L383.106,70.806 z M383.106,42.051 L388.785,42.051 L388.785,47.21 L383.106,47.21 z" fill="#17170E"/>
      <path d="M399.845,71.086 C395.165,71.086 394.165,69.486 394.165,65.047 L394.165,53.569 L391.366,53.569 L391.366,49.57 L394.165,49.57 L394.165,43.771 L399.805,43.771 L399.805,49.57 L403.084,49.57 L403.084,53.569 L399.805,53.569 L399.805,65.327 C399.805,66.447 400.164,66.687 401.685,66.687 L403.084,66.687 L403.084,70.966 C401.525,71.006 400.445,71.086 399.845,71.086" fill="#17170E"/>
      <path d="M418.94,57.969 C418.86,55.09 417.38,53.57 414.741,53.57 C412.3,53.57 410.821,55.09 410.581,57.969 z M424.539,64.368 C423.378,68.807 419.74,71.527 414.701,71.527 C408.662,71.527 404.702,67.207 404.702,60.049 C404.702,53.09 408.502,48.811 414.621,48.811 C421.099,48.811 424.819,52.89 424.819,60.209 C424.819,60.689 424.819,61.169 424.779,61.688 L410.581,61.688 C410.741,65.008 412.221,66.728 414.98,66.728 C416.9,66.728 418.14,66.008 418.86,64.368 z" fill="#17170E"/>
      <path d="M434.52,71.086 C429.84,71.086 428.84,69.486 428.84,65.047 L428.84,53.569 L426.041,53.569 L426.041,49.57 L428.84,49.57 L428.84,43.771 L434.48,43.771 L434.48,49.57 L437.759,49.57 L437.759,53.569 L434.48,53.569 L434.48,65.327 C434.48,66.447 434.839,66.687 436.36,66.687 L437.759,66.687 L437.759,70.966 C436.2,71.006 435.12,71.086 434.52,71.086" fill="#17170E"/>
      <path d="M453.615,57.969 C453.535,55.09 452.054,53.57 449.416,53.57 C446.975,53.57 445.496,55.09 445.256,57.969 z M459.214,64.368 C458.053,68.807 454.415,71.527 449.376,71.527 C443.337,71.527 439.377,67.207 439.377,60.049 C439.377,53.09 443.177,48.811 449.296,48.811 C455.774,48.811 459.494,52.89 459.494,60.209 C459.494,60.689 459.494,61.169 459.454,61.688 L445.256,61.688 C445.416,65.008 446.896,66.728 449.655,66.728 C451.575,66.728 452.815,66.008 453.535,64.368 z" fill="#17170E"/>
      <path d="M469.196,71.086 C464.516,71.086 463.516,69.486 463.516,65.047 L463.516,53.569 L460.717,53.569 L460.717,49.57 L463.516,49.57 L463.516,43.771 L469.156,43.771 L469.156,49.57 L472.435,49.57 L472.435,53.569 L469.156,53.569 L469.156,65.327 C469.156,66.447 469.515,66.687 471.036,66.687 L472.435,66.687 L472.435,70.966 C470.876,71.006 469.796,71.086 469.196,71.086" fill="#17170E"/>
      <path d="M487.196,49.57 L492.875,49.57 L492.875,70.806 L487.196,70.806 z M487.196,42.051 L492.875,42.051 L492.875,47.21 L487.196,47.21 z" fill="#17170E"/>
      <path d="M522.594,66.447 C527.633,66.447 530.672,62.848 530.672,56.449 C530.672,50.05 527.633,46.45 522.594,46.45 C517.594,46.45 514.595,50.05 514.595,56.449 C514.595,62.848 517.594,66.447 522.594,66.447 M522.594,41.291 C531.192,41.291 536.671,47.17 536.671,56.449 C536.671,65.727 531.192,71.606 522.594,71.606 C513.995,71.606 508.556,65.727 508.556,56.449 C508.556,47.17 513.995,41.291 522.594,41.291" fill="#17170E"/>
      <path d="M545.043,63.888 C545.122,66.048 546.562,67.088 549.482,67.088 C551.762,67.088 552.962,66.288 552.962,64.968 C552.962,63.128 551.122,63.248 547.362,62.288 C542.363,61.009 540.004,59.489 540.004,55.889 C540.004,51.61 543.283,48.811 548.723,48.811 C554.44,48.811 557.801,51.49 558,56.05 L552.481,56.05 C552.401,54.25 551.082,53.21 548.762,53.21 C546.603,53.21 545.562,53.85 545.562,55.17 C545.562,56.649 547.322,56.809 551.361,57.769 C556.281,58.929 558.681,60.289 558.681,64.128 C558.681,68.927 555.241,71.527 548.723,71.527 C542.802,71.527 539.363,68.687 539.363,64.128 L539.363,63.888 z" fill="#17170E"/>
      <path d="M562.291,42.051 L567.97,42.051 L567.97,70.806 L562.291,70.806 z" fill="#17170E"/>
      <path d="M582.349,66.767 C585.508,66.767 587.308,64.408 587.308,60.168 C587.308,55.929 585.508,53.609 582.349,53.609 C579.189,53.609 577.35,55.929 577.35,60.168 C577.35,64.408 579.189,66.767 582.349,66.767 M582.349,48.81 C589.028,48.81 593.107,53.09 593.107,60.168 C593.107,67.247 589.028,71.526 582.349,71.526 C575.67,71.526 571.59,67.247 571.59,60.168 C571.59,53.09 575.67,48.81 582.349,48.81" fill="#17170E"/>
      <path d="M154.946,60.511 C154.946,62.488 154.713,64.161 154.247,65.533 C153.778,66.907 153.066,68.019 152.105,68.869 C151.145,69.723 149.945,70.337 148.502,70.722 C147.063,71.105 145.353,71.296 143.379,71.296 C141.702,71.296 140.172,71.114 138.787,70.743 C137.399,70.372 136.212,69.775 135.224,68.951 C134.236,68.129 133.467,67.059 132.92,65.743 C132.37,64.422 132.095,62.802 132.095,60.883 L132.095,43.838 L128.802,43.221 L128.802,41.984 L139.011,41.984 L139.011,43.221 L135.718,43.838 L135.718,62.24 C135.718,64.518 136.432,66.31 137.859,67.615 C139.287,68.917 141.385,69.57 144.159,69.57 C147.069,69.57 149.174,68.895 150.478,67.549 C151.782,66.207 152.434,64.081 152.434,61.171 L152.434,43.838 L149.141,43.221 L149.141,41.984 L158.239,41.984 L158.239,43.221 L154.946,43.838 z" fill="#17170E"/>
      <path d="M167.353,53.099 L167.353,68.952 L170.646,69.57 L170.646,70.805 L160.888,70.805 L160.888,69.57 L164.182,68.952 L164.182,52.689 L160.888,51.454 L160.888,50.754 L167.353,49.724 L167.517,49.809 z" fill="#17170E"/>
      <path d="M195,46.472 C193.353,44.304 191.033,43.221 188.042,43.221 C184.994,43.221 182.65,44.269 181.001,46.368 C179.354,48.47 178.532,51.769 178.532,56.271 C178.532,60.826 179.34,64.184 180.96,66.336 C182.58,68.493 184.911,69.57 187.96,69.57 C191.007,69.57 193.353,68.515 195,66.399 C196.646,64.285 197.47,60.993 197.47,56.518 C197.47,51.989 196.646,48.64 195,46.472 M197.964,67.472 C195.575,70.022 192.187,71.296 187.795,71.296 C183.596,71.296 180.32,70.057 177.975,67.573 C175.628,65.089 174.455,61.446 174.455,56.642 C174.455,54.144 174.776,51.948 175.423,50.054 C176.067,48.16 176.979,46.581 178.161,45.319 C179.34,44.054 180.775,43.104 182.463,42.459 C184.151,41.814 186.038,41.49 188.123,41.49 C190.211,41.49 192.082,41.807 193.743,42.436 C195.403,43.069 196.812,44.007 197.964,45.258 C199.115,46.508 200.002,48.05 200.62,49.889 C201.237,51.729 201.545,53.858 201.545,56.271 C201.545,61.183 200.353,64.919 197.964,67.472" fill="#17170E"/>
      <path d="M163.747,43.668 C163.747,44.27 163.946,44.772 164.344,45.169 C164.741,45.567 165.243,45.766 165.846,45.766 C166.45,45.766 166.959,45.567 167.37,45.169 C167.782,44.772 167.988,44.27 167.988,43.668 C167.988,43.064 167.782,42.555 167.37,42.143 C166.959,41.729 166.45,41.526 165.846,41.526 C165.243,41.526 164.741,41.729 164.344,42.143 C163.946,42.555 163.747,43.064 163.747,43.668" fill="#17170E"/>
      <path d="M54.812,9.637 C28.458,9.637 7.091,31.009 7.091,57.366 C7.091,83.721 28.458,105.089 54.812,105.089 C81.174,105.089 102.542,83.721 102.542,57.366 C102.542,31.009 81.174,9.637 54.812,9.637" fill="#DA322A"/>
      <path d="M9.442,57.365 C9.442,69.894 14.521,81.235 22.732,89.447 C30.944,97.659 42.284,102.737 54.813,102.737 C67.345,102.736 78.687,97.659 86.9,89.447 C95.111,81.235 100.189,69.894 100.189,57.365 C100.189,44.836 95.111,33.493 86.9,25.28 C78.687,17.068 67.344,11.988 54.813,11.988 C40.718,11.988 28.127,18.417 19.803,28.503 L19.803,28.503 C13.33,36.348 9.442,46.401 9.442,57.365 M8.757,57.365 C8.757,46.238 12.705,36.028 19.275,28.067 C27.721,17.83 40.507,11.303 54.813,11.303 C80.253,11.303 100.874,31.929 100.875,57.365 C100.874,82.8 80.253,103.422 54.813,103.423 C29.379,103.422 8.757,82.8 8.757,57.365" fill="#FFFFFE"/>
      <path d="M18.877,76.049 C18.884,75.447 19.377,74.965 19.98,74.973 C20.581,74.98 21.064,75.473 21.057,76.075 C21.05,76.677 20.556,77.159 19.954,77.153 C19.352,77.145 18.87,76.652 18.877,76.049" fill="#FFFFFE"/>
      <path d="M88.198,76.699 C88.205,76.097 88.698,75.615 89.301,75.623 C89.902,75.63 90.385,76.123 90.377,76.724 C90.37,77.327 89.877,77.809 89.275,77.802 C88.673,77.795 88.191,77.302 88.198,76.699" fill="#FFFFFE"/>
      <path d="M85.689,70.409 C84,74.387 81.595,77.959 78.524,81.03 C75.455,84.097 71.883,86.508 67.903,88.192 C66.337,88.855 64.735,89.392 63.103,89.805 L63.064,89.138 C63.064,88.738 62.611,88.537 62.362,88.537 L60.925,88.559 C60.925,88.559 60.483,88.452 60.43,88.435 C60.376,88.419 60.389,88.362 60.398,88.351 C60.499,88.229 60.504,88.053 60.406,87.924 L59.31,86.494 L59.345,85.477 C62.568,85.398 64.941,84.175 66.048,83.367 C67.137,82.561 67.207,81.331 67.209,80.966 C67.209,80.913 67.207,80.877 67.207,80.861 L67.173,78.006 C67.184,78.001 67.194,77.999 67.205,77.993 L67.204,77.992 L70.258,76.278 C70.376,76.212 70.443,76.084 70.432,75.948 L68.427,53.605 C68.514,53.575 68.798,53.477 69.118,53.357 C69.508,53.208 69.92,53.049 70.164,52.889 C70.383,52.735 71.303,51.962 71.524,51.731 C71.718,51.525 71.792,51.26 71.79,51.024 C71.786,50.656 71.645,50.329 71.501,50.07 C71.375,49.852 71.202,49.674 71.014,49.519 C71.435,48.582 71.648,47.542 71.647,46.468 C71.648,44.594 71.2,43.119 70.768,41.723 C70.334,40.326 69.918,39.009 69.918,37.387 C69.918,34.375 69.95,32.587 69.95,32.583 C69.951,32.491 69.916,32.402 69.852,32.337 C69.788,32.271 69.699,32.234 69.607,32.234 C68.596,32.23 67.968,32.565 67.624,32.937 C67.462,33.111 67.364,33.285 67.304,33.425 L61.125,33.425 C61.064,33.27 60.963,33.071 60.796,32.868 C60.462,32.455 59.835,32.057 58.856,32.062 C58.764,32.062 58.677,32.098 58.612,32.164 C58.548,32.228 58.512,32.316 58.513,32.408 C58.513,32.413 58.532,34.68 58.531,37.857 C58.533,38.107 58.521,38.354 58.5,38.599 C58.374,38.399 58.237,38.2 58.092,38.011 C57.71,37.52 57.308,37.089 56.812,36.926 C56.364,36.789 55.702,36.583 54.925,36.346 C54.64,36.256 54.522,36.125 54.441,35.981 C54.395,35.896 54.369,35.802 54.355,35.713 L54.733,35.721 L54.752,35.721 C55.093,35.709 55.384,35.664 55.633,35.561 C55.878,35.463 56.103,35.278 56.186,35.005 C56.228,34.865 56.242,34.731 56.242,34.612 C56.241,34.477 56.225,34.36 56.208,34.274 L56.37,33.989 C56.423,33.896 56.429,33.786 56.39,33.691 C56.464,33.622 56.504,33.521 56.498,33.418 L56.474,33.066 C56.49,33.063 56.507,33.06 56.525,33.057 C56.629,33.038 56.737,33.013 56.85,32.963 C56.906,32.935 56.967,32.903 57.03,32.84 C57.093,32.78 57.161,32.666 57.16,32.533 C57.158,32.44 57.139,32.221 57.11,31.878 C57.036,31.034 56.901,29.603 56.859,29.159 C57,28.971 57.24,28.585 57.251,28.083 C57.252,27.76 57.157,27.379 56.862,27.081 C56.575,26.79 56.128,26.619 55.53,26.612 C55.265,26.542 53.882,26.175 53.482,26.115 C53.185,26.073 52.787,26.004 52.318,26.004 C51.519,26.001 50.508,26.217 49.411,27.065 C47.993,28.182 47.877,30.182 47.867,31.072 C47.867,31.244 47.873,31.377 47.878,31.455 C47.831,31.597 47.759,31.892 47.759,32.362 C47.759,32.62 47.78,32.93 47.839,33.297 C47.977,34.185 48.526,34.721 49.011,34.998 C49.257,35.139 49.49,35.224 49.663,35.274 L49.663,35.926 C49.394,36.061 47.685,36.812 46.042,37.944 C46.008,37.975 45.872,38.053 45.745,38.197 C45.742,38.2 45.737,38.202 45.734,38.205 L27.269,56.876 C27.204,56.941 27.168,57.033 27.17,57.126 C27.173,57.219 27.213,57.307 27.282,57.37 C27.285,57.372 28.555,58.527 29.963,59.816 C30.314,60.138 30.674,60.467 31.024,60.789 L27.64,65.431 C27.355,65.795 27.171,66.321 27.173,67.021 C27.177,68.438 27.878,70.591 30.029,73.939 C32.482,77.753 34.362,79.512 35.054,80.09 L34.161,81.116 C34.13,81.148 33.844,81.451 33.549,81.842 C33.394,82.045 33.237,82.272 33.113,82.502 C33.084,82.559 33.055,82.615 33.029,82.672 C32.424,82.147 31.835,81.6 31.263,81.029 C28.196,77.959 25.788,74.387 24.107,70.409 C22.361,66.294 21.477,61.916 21.477,57.398 C21.477,52.89 22.361,48.516 24.107,44.398 C25.788,40.412 28.196,36.842 31.263,33.77 C34.337,30.705 37.905,28.295 41.887,26.609 C46.009,24.87 50.381,23.99 54.898,23.989 C59.407,23.99 63.782,24.87 67.903,26.609 C71.883,28.295 75.455,30.705 78.524,33.77 C81.596,36.842 84,40.412 85.689,44.397 C87.428,48.515 88.31,52.89 88.31,57.398 C88.31,61.916 87.428,66.294 85.689,70.409 M54.75,90.814 C56.708,90.477 58.437,89.836 59.702,88.924 L60.778,89.232 C60.817,89.244 60.858,89.249 60.899,89.247 C60.899,89.247 61.9,89.193 61.983,89.187 C62.268,89.17 62.396,89.338 62.398,89.397 C62.4,89.458 62.407,89.531 62.407,89.531 C62.407,89.531 62.419,89.709 62.302,89.825 C62.195,89.931 61.423,90.145 61.142,90.234 C59.098,90.62 57.013,90.816 54.898,90.816 C54.849,90.816 54.799,90.814 54.75,90.814 M35.068,81.723 C35.191,81.726 35.329,81.728 35.483,81.729 C38.203,81.728 45.446,81.104 50.724,74.883 C55.068,69.726 56.157,59.885 56.327,58.162 L57.688,58.065 C57.64,58.77 57.519,60.439 57.308,62.696 C57.024,65.722 56.579,69.796 55.932,73.983 C55.285,78.172 54.505,82.323 53.888,85.426 C53.432,87.722 53.064,89.438 52.904,90.18 C52.889,90.246 52.805,90.369 52.646,90.369 C52.269,90.369 51.889,90.403 51.504,90.402 C50.254,90.403 48.965,90.286 47.691,90.04 C47.025,89.893 46.363,89.727 45.706,89.54 C40.985,88.052 38.245,85.949 36.682,84.246 C35.899,83.391 35.411,82.633 35.121,82.092 C35.074,82.005 35.032,81.925 34.996,81.849 C34.956,81.768 35.001,81.722 35.068,81.723 M35.233,80.928 C35.319,80.829 44.551,70.229 44.551,70.229 C44.585,70.19 44.61,70.144 44.623,70.095 C44.623,70.095 47.355,60.014 47.374,59.943 C47.393,59.873 47.464,59.853 47.464,59.853 C47.464,59.853 52.306,58.528 52.492,58.474 C52.679,58.422 52.947,58.399 52.947,58.399 L55.636,58.21 C55.604,58.523 55.549,59.027 55.46,59.676 C55.002,63.083 53.608,70.435 50.201,74.439 C45.129,80.432 38.111,81.045 35.483,81.044 C35.425,81.044 35.369,81.044 35.315,81.043 C35.215,81.043 35.147,81.027 35.233,80.928 M62.346,35.733 L62.346,38.407 C62.116,38.535 61.939,38.646 61.842,38.704 C61.533,38.901 61.116,39.274 61.036,39.345 L61.034,39.346 C61.154,38.433 61.24,37.282 61.251,35.733 z M63.902,35.733 L63.902,37.777 C63.602,37.842 63.305,37.946 63.031,38.065 L63.031,35.733 z M65.406,35.733 L65.406,37.838 C65.159,37.746 64.883,37.715 64.587,37.711 L64.587,35.733 z M66.713,40.139 C66.674,40.017 66.597,39.835 66.362,39.756 C66.301,39.738 66.236,39.721 66.175,39.708 C66.173,39.492 66.171,39.191 66.171,38.957 C66.175,38.792 66.146,38.634 66.091,38.49 L66.091,35.733 L67.166,35.733 C67.184,38.558 67.43,40.235 67.677,41.451 C67.935,42.719 68.176,43.447 68.175,44.46 C68.176,45.55 67.755,46.588 67.066,47.346 C66.782,47.658 66.453,47.922 66.091,48.126 L66.091,41.463 C66.115,41.46 66.141,41.457 66.162,41.455 C66.196,41.452 66.225,41.448 66.247,41.446 C66.268,41.444 66.276,41.445 66.276,41.444 C66.404,41.444 66.495,41.382 66.54,41.338 C66.686,41.176 66.683,41.081 66.722,40.947 C66.748,40.82 66.763,40.677 66.764,40.532 C66.763,40.401 66.753,40.272 66.713,40.139 M64.587,48.575 L64.587,41.696 C64.902,41.619 65.177,41.549 65.279,41.523 L65.406,41.523 L65.406,48.422 C65.144,48.504 64.871,48.555 64.587,48.575 M63.031,48.4 L63.031,41.986 C63.092,41.982 63.151,41.98 63.198,41.98 C63.339,41.977 63.482,41.945 63.699,41.902 C63.763,41.888 63.831,41.873 63.902,41.857 L63.902,48.561 C63.604,48.534 63.313,48.479 63.031,48.4 M60.168,45.307 C60.969,44.326 61.851,43.121 62.346,42.435 L62.346,48.15 C62.003,47.992 61.686,47.794 61.405,47.555 C60.761,47.004 60.307,46.257 60.168,45.307 M60.303,57.843 L60.552,57.792 C60.71,57.76 60.825,57.619 60.825,57.457 L60.837,53.013 C61.751,53.383 62.814,53.596 64.024,53.596 L64.036,53.596 C64.813,53.596 65.535,53.51 66.203,53.354 L66.522,80.879 L66.522,80.897 C66.522,80.897 66.524,80.916 66.524,80.966 C66.526,81.248 66.451,82.234 65.644,82.813 C64.644,83.546 62.401,84.711 59.369,84.792 z M48.851,49.921 C48.311,49.179 46.736,46.973 46.204,42.953 C46.241,42.995 46.278,43.037 46.316,43.077 C46.886,43.674 47.532,44.07 47.918,44.268 C51.349,46.107 56.86,48.276 56.866,48.279 C56.869,48.28 56.873,48.281 56.876,48.282 C56.925,48.512 56.989,48.738 57.062,48.963 L51.892,49.279 C51.892,49.279 51.285,49.305 50.847,49.43 C50.318,49.58 49.109,49.923 49.028,49.95 C48.927,49.982 48.869,49.946 48.851,49.921 M46.746,58.568 C46.746,58.568 48.974,50.868 49.004,50.764 C49.034,50.661 49.137,50.632 49.137,50.632 C49.137,50.632 50.768,50.175 51.027,50.091 C51.287,50.007 51.713,49.975 51.713,49.975 L57.317,49.632 C57.61,50.289 58.011,50.909 58.529,51.455 C58.983,51.934 59.525,52.353 60.153,52.692 C60.153,52.692 60.142,56.954 60.142,57.035 C60.142,57.116 60.102,57.207 59.922,57.221 C59.743,57.236 54.286,57.619 52.926,57.715 C52.732,57.727 52.502,57.762 52.294,57.818 C52.086,57.876 47.335,59.179 47.335,59.179 C47.335,59.179 47.173,59.204 47.091,59.14 C47.01,59.075 46.968,59.042 46.822,58.926 C46.676,58.809 46.746,58.568 46.746,58.568 M58.691,86.813 C58.691,86.813 59.58,87.965 59.614,88.016 C59.648,88.068 59.622,88.129 59.597,88.148 C58.252,89.246 56.073,90.013 53.581,90.289 C53.973,88.477 55.487,81.347 56.609,74.088 C57.765,66.602 58.278,59.495 58.378,58.017 C58.378,58.017 59.277,57.959 59.435,57.943 C59.591,57.928 59.611,58.02 59.608,58.116 C59.605,58.213 58.621,86.594 58.621,86.594 C58.618,86.673 58.644,86.751 58.691,86.813 M69.72,75.687 C69.72,75.687 69.732,75.787 69.652,75.833 C69.572,75.878 67.164,77.229 67.164,77.229 L66.885,53.167 C67.158,53.078 67.42,52.974 67.672,52.86 z M68.714,51.91 C68.529,51.649 68.469,51.472 68.471,51.357 C68.471,51.317 68.477,51.281 68.489,51.238 L68.491,51.238 C68.517,51.175 68.722,50.955 68.905,50.8 C69.09,50.638 69.256,50.513 69.256,50.512 C69.353,50.452 69.415,50.298 69.407,50.206 C69.401,50.069 69.366,50.021 69.345,49.968 C69.321,49.92 69.296,49.878 69.278,49.839 C69.255,49.788 69.24,49.674 69.343,49.571 C69.46,49.454 69.624,49.502 69.659,49.516 C69.784,49.567 69.994,49.663 70.195,49.783 C70.494,49.957 70.794,50.202 70.905,50.407 C71.017,50.6 71.108,50.853 71.104,51.024 C71.103,51.138 71.057,51.224 71.001,51.287 C70.891,51.412 69.885,52.257 69.781,52.321 C69.674,52.397 69.243,52.581 68.877,52.716 C68.771,52.756 68.668,52.794 68.576,52.827 C68.45,52.88 68.43,52.797 68.43,52.797 C68.43,52.797 68.405,52.721 68.455,52.674 C68.512,52.627 68.57,52.574 68.626,52.513 C68.686,52.433 68.775,52.359 68.789,52.145 C68.79,52.073 68.766,51.982 68.714,51.91 M59.202,32.951 C59.202,32.801 59.254,32.776 59.279,32.779 C59.802,32.862 60.085,33.088 60.268,33.304 C60.38,33.439 60.449,33.577 60.488,33.678 C60.507,33.728 60.52,33.769 60.527,33.796 C60.53,33.809 60.532,33.818 60.533,33.823 L60.534,33.824 C60.562,33.988 60.705,34.109 60.872,34.109 L67.554,34.109 C67.724,34.109 67.867,33.985 67.893,33.817 C67.899,33.784 67.953,33.568 68.167,33.362 C68.346,33.194 68.64,33.012 69.173,32.945 C69.246,32.93 69.258,33.001 69.258,33.064 C69.258,33.771 69.233,35.246 69.233,37.387 C69.233,39.13 69.683,40.535 70.114,41.927 C70.546,43.321 70.962,44.704 70.962,46.468 C70.962,47.411 70.783,48.314 70.435,49.132 C70.127,48.961 69.87,48.856 69.728,48.815 C69.679,48.803 69.63,48.797 69.585,48.797 C69.314,48.808 69.14,48.929 68.967,49.048 C68.799,49.184 68.67,49.28 68.573,49.492 C68.546,49.562 68.535,49.635 68.535,49.701 C68.539,49.888 68.603,50.017 68.652,50.117 C68.581,50.175 68.498,50.244 68.412,50.321 C68.301,50.421 68.185,50.53 68.084,50.644 C67.983,50.762 67.893,50.865 67.835,51.036 C67.803,51.139 67.786,51.248 67.786,51.357 C67.787,51.566 67.845,51.761 67.941,51.953 C66.905,52.555 65.605,52.909 64.036,52.91 C61.75,52.908 60.112,52.124 59.026,50.983 C58.217,50.133 57.716,49.073 57.513,47.976 C57.851,47.691 58.442,47.17 59.194,46.417 C59.321,46.288 59.461,46.137 59.608,45.971 C59.85,46.829 60.332,47.544 60.961,48.077 C61.838,48.822 62.989,49.224 64.18,49.261 C64.201,49.264 64.222,49.267 64.244,49.267 C64.253,49.267 64.262,49.265 64.271,49.264 C64.299,49.265 64.326,49.268 64.354,49.268 C66.928,49.261 68.856,46.984 68.86,44.46 C68.859,43.327 68.595,42.536 68.348,41.314 C68.1,40.089 67.85,38.388 67.85,35.39 C67.85,35.301 67.813,35.213 67.749,35.149 C67.686,35.085 67.597,35.049 67.507,35.049 L60.91,35.049 C60.819,35.049 60.731,35.085 60.668,35.148 C60.604,35.213 60.567,35.301 60.567,35.39 C60.566,37.536 60.429,38.913 60.251,39.941 L58.702,41.118 C58.825,40.673 58.936,40.221 59.022,39.759 C59.028,39.739 59.032,39.72 59.034,39.699 C59.144,39.104 59.213,38.492 59.216,37.857 C59.216,35.606 59.207,33.809 59.202,32.951 M48.47,38.174 C48.993,38.172 49.461,38.324 49.733,38.6 C50.178,39.045 50.658,39.65 51.022,40.141 C51.387,40.633 51.635,41.007 51.636,41.008 C51.661,41.046 51.692,41.077 51.73,41.102 L55.834,43.866 C55.956,43.949 56.115,43.944 56.232,43.855 L61.459,39.884 L61.481,39.865 C61.481,39.865 61.597,39.761 61.749,39.634 C61.899,39.508 62.089,39.357 62.207,39.284 C62.479,39.104 63.632,38.421 64.366,38.4 C64.431,38.397 64.493,38.395 64.552,38.395 C64.906,38.393 65.167,38.455 65.296,38.541 C65.42,38.63 65.477,38.701 65.486,38.957 C65.486,39.375 65.493,39.992 65.493,39.992 C65.495,40.158 65.614,40.268 65.777,40.297 C65.906,40.297 66.079,40.334 66.079,40.532 C66.079,40.759 65.924,40.793 65.851,40.802 C65.726,40.817 65.608,40.832 65.56,40.839 L65.237,40.838 L65.151,40.848 C65.15,40.848 64.71,40.963 64.236,41.076 C64,41.133 63.755,41.19 63.557,41.231 C63.459,41.252 63.371,41.269 63.304,41.281 C63.271,41.286 63.243,41.291 63.223,41.293 C63.203,41.296 63.198,41.295 63.198,41.296 C62.896,41.297 62.427,41.348 62.42,41.349 C62.323,41.36 62.234,41.413 62.178,41.492 C62.176,41.494 61.599,42.315 60.873,43.284 C60.148,44.252 59.271,45.372 58.71,45.933 C58.126,46.517 57.642,46.959 57.305,47.253 C57.2,47.345 57.109,47.421 57.034,47.483 C56.996,47.515 56.902,47.557 56.805,47.517 C56.303,47.311 55.233,46.883 53.944,46.332 C52.146,45.563 49.921,44.565 48.235,43.662 C47.899,43.49 47.304,43.123 46.812,42.604 C46.759,42.549 46.708,42.49 46.657,42.431 C46.641,42.412 46.625,42.392 46.609,42.374 C46.572,42.328 46.535,42.281 46.5,42.233 C46.473,42.196 46.446,42.158 46.42,42.121 C46.398,42.089 46.377,42.056 46.356,42.023 C46.332,41.985 46.308,41.946 46.285,41.907 C46.276,41.89 46.268,41.874 46.259,41.858 C46.213,41.775 46.171,41.689 46.134,41.602 C46.129,41.59 46.124,41.578 46.118,41.566 C46.098,41.514 46.078,41.464 46.061,41.412 L46.061,41.411 C46.06,41.41 46.06,41.409 46.06,41.408 C46.029,41.316 46.004,41.222 45.984,41.126 C45.976,41.085 45.968,41.044 45.961,41.002 C45.957,40.971 45.952,40.938 45.949,40.907 C45.94,40.827 45.934,40.748 45.934,40.666 C45.934,40.612 45.937,40.557 45.94,40.503 C45.944,40.458 45.949,40.411 45.955,40.365 C45.956,40.357 45.957,40.349 45.958,40.342 C45.973,40.232 45.996,40.12 46.028,40.006 L46.028,40.005 L46.028,40.004 C46.047,39.934 46.07,39.864 46.095,39.792 C46.097,39.788 46.098,39.785 46.099,39.781 C46.123,39.716 46.15,39.647 46.18,39.58 C46.185,39.57 46.189,39.56 46.193,39.551 C46.221,39.488 46.253,39.424 46.287,39.359 C46.294,39.346 46.301,39.331 46.309,39.316 C46.351,39.239 46.396,39.161 46.446,39.08 C46.756,38.559 47.65,38.165 48.47,38.174 M51.822,38.829 C51.882,38.877 51.957,38.901 52.033,38.901 L52.056,38.901 L56.042,38.63 C56.173,38.621 56.287,38.539 56.336,38.417 C56.386,38.296 56.361,38.158 56.274,38.06 L55.557,37.257 C55.974,37.385 56.334,37.496 56.611,37.581 C56.824,37.635 57.216,37.979 57.547,38.426 C57.861,38.836 58.149,39.322 58.338,39.714 C58.197,40.421 57.994,41.118 57.779,41.82 L56.013,43.162 L52.168,40.571 C51.973,40.283 51.078,38.98 50.217,38.116 C49.761,37.665 49.115,37.489 48.47,37.488 C48.351,37.489 48.231,37.496 48.111,37.509 C48.28,37.416 48.449,37.326 48.613,37.239 C48.864,37.106 49.104,36.981 49.318,36.871 z M55.792,33.143 C55.792,33.143 55.797,33.25 55.707,33.301 C55.616,33.351 55.554,33.441 55.537,33.544 C55.52,33.646 55.564,33.744 55.62,33.828 C55.633,33.848 55.636,33.892 55.613,33.933 C55.59,33.974 55.545,34.053 55.545,34.053 C55.497,34.137 55.487,34.236 55.517,34.328 L55.521,34.342 C55.532,34.382 55.557,34.495 55.557,34.612 C55.557,34.679 55.503,34.87 55.37,34.929 C55.242,34.983 55.026,35.026 54.742,35.036 L54.02,35.021 C53.853,35.017 53.707,35.137 53.677,35.302 C53.674,35.317 53.657,35.41 53.657,35.551 C53.658,35.739 53.685,36.019 53.838,36.305 C53.896,36.416 53.975,36.524 54.076,36.624 C54.077,36.625 54.078,36.627 54.079,36.629 L54.079,36.629 L55.297,37.994 L52.14,38.209 L49.99,36.527 C50.096,36.474 50.157,36.443 50.157,36.443 C50.274,36.386 50.348,36.267 50.348,36.137 L50.348,35.143 L51.728,33.76 C51.813,33.675 51.847,33.549 51.818,33.433 C51.788,33.316 51.698,33.223 51.584,33.189 L51.584,33.188 C51.521,33.145 51.107,33.013 51.094,32.168 C51.099,32.029 51.132,32.011 51.162,31.978 C51.173,31.97 51.186,31.962 51.196,31.957 L52.093,31.949 C52.199,31.948 52.299,31.898 52.363,31.814 C52.363,31.814 53.8,29.915 53.899,29.792 C53.998,29.667 54.148,29.658 54.148,29.658 L56.095,29.445 C56.095,29.445 56.194,29.439 56.21,29.56 C56.226,29.74 56.247,29.958 56.269,30.195 C56.273,30.295 56.207,30.332 56.169,30.333 C55.922,30.341 55.665,30.347 55.39,30.358 C55.102,30.369 54.789,30.501 54.582,30.676 C54.428,30.805 54.423,31.045 54.566,31.182 C54.645,31.259 54.815,31.284 55.002,31.341 C55.239,31.412 55.501,31.502 55.632,31.46 C55.8,31.406 55.863,31.258 55.875,31.096 C55.888,30.915 55.996,30.791 56.179,30.791 C56.256,30.791 56.303,30.854 56.31,30.92 C56.344,31.261 56.407,31.692 56.428,31.937 C56.438,32.057 56.448,32.169 56.455,32.263 C56.458,32.385 56.351,32.394 56.296,32.4 C56.183,32.415 56.093,32.418 56.093,32.419 C56.001,32.423 55.915,32.464 55.854,32.533 C55.792,32.602 55.761,32.691 55.768,32.784 z M50.555,30.526 C50.494,30.351 50.307,30.257 50.132,30.31 C50.281,30.178 50.429,30.049 50.572,29.927 L52.043,29.734 C52.231,29.709 52.362,29.537 52.338,29.349 C52.314,29.162 52.141,29.03 51.954,29.055 L51.73,29.084 C52.189,28.813 52.66,28.595 53.048,28.434 C53.31,28.326 53.535,28.244 53.692,28.189 C53.85,28.136 53.937,28.11 53.937,28.109 C54.118,28.055 54.222,27.865 54.168,27.683 C54.114,27.503 53.923,27.399 53.742,27.453 C53.731,27.457 53.159,27.626 52.419,27.96 C52.527,27.805 52.49,27.593 52.335,27.484 C52.181,27.376 51.967,27.413 51.858,27.567 L51.071,28.686 C51.001,28.732 50.93,28.779 50.861,28.827 C50.76,28.898 50.648,28.982 50.531,29.075 L50.611,28.919 C50.697,28.751 50.631,28.544 50.463,28.458 C50.294,28.371 50.088,28.437 50.002,28.606 L49.139,30.284 C48.925,30.482 48.726,30.67 48.556,30.832 C48.583,29.935 48.824,28.359 49.829,27.608 C50.817,26.851 51.636,26.691 52.318,26.688 C52.72,26.688 53.073,26.749 53.386,26.794 C53.535,26.813 54.062,26.94 54.519,27.056 C54.981,27.175 55.397,27.285 55.397,27.286 L55.486,27.297 C55.992,27.299 56.242,27.429 56.376,27.563 C56.511,27.699 56.564,27.882 56.565,28.083 C56.567,28.256 56.493,28.45 56.409,28.596 C56.378,28.65 56.35,28.693 56.323,28.73 L53.766,29.011 C53.673,29.021 53.588,29.069 53.53,29.143 L51.919,31.265 L51.132,31.271 L51.06,31.28 C51.028,31.288 50.884,31.32 50.724,31.453 C50.563,31.581 50.404,31.838 50.409,32.168 C50.406,32.807 50.626,33.246 50.869,33.501 C50.894,33.528 50.919,33.553 50.944,33.576 L49.895,34.628 C49.731,34.584 49.467,34.492 49.218,34.318 C48.9,34.094 48.609,33.764 48.515,33.188 C48.462,32.855 48.443,32.581 48.443,32.362 C48.444,32.131 48.464,31.964 48.485,31.847 C48.489,31.844 48.494,31.842 48.498,31.838 C48.498,31.837 48.652,31.686 48.893,31.456 L50.341,30.961 C50.52,30.899 50.616,30.705 50.555,30.526 M32.575,66.407 C32.768,66.444 32.948,66.462 33.116,66.462 C33.72,66.464 34.16,66.233 34.427,65.999 C34.697,65.763 34.809,65.534 34.823,65.507 L34.824,65.504 L34.825,65.502 C34.827,65.498 34.829,65.492 34.833,65.483 L34.852,65.437 L45.276,41.06 C45.298,41.222 45.346,41.539 45.391,41.69 C45.552,44.429 46.181,46.346 46.841,47.819 C47.223,48.672 47.612,49.323 47.917,49.781 C48.069,50.011 48.201,50.193 48.298,50.326 C48.331,50.371 48.36,50.41 48.384,50.442 L45.954,58.84 C45.915,58.972 45.961,59.117 46.069,59.203 L46.648,59.663 C46.648,59.663 46.722,59.73 46.687,59.856 C46.653,59.982 43.983,69.839 43.983,69.839 L35.504,79.573 C34.878,79.053 33.037,77.349 30.605,73.569 C28.485,70.279 27.853,68.205 27.857,67.021 C27.858,66.432 28.005,66.075 28.179,65.853 C28.181,65.85 28.184,65.848 28.186,65.846 L28.194,65.834 C28.205,65.821 28.215,65.807 28.226,65.796 C28.42,65.58 28.658,65.505 28.837,65.505 C28.86,65.505 28.882,65.506 28.903,65.509 C29.846,65.618 31.178,66.13 32.575,66.407 M28.007,57.103 L44.96,39.963 L34.797,63.821 C34.646,63.423 34.378,62.987 33.932,62.557 C32.982,61.636 29.065,58.066 28.007,57.103 M33.455,63.049 C34.153,63.731 34.278,64.325 34.282,64.726 C34.282,64.888 34.259,65.018 34.237,65.104 C34.226,65.147 34.215,65.18 34.209,65.199 C34.207,65.204 34.206,65.208 34.204,65.211 C34.173,65.258 33.899,65.776 33.116,65.776 C32.995,65.776 32.859,65.764 32.707,65.734 C31.381,65.476 30.071,64.963 28.988,64.829 C28.97,64.826 28.949,64.827 28.93,64.825 L31.532,61.256 C32.382,62.038 33.118,62.722 33.455,63.049 M33.739,83.269 C33.688,83.227 33.6,83.082 33.645,82.972 C33.663,82.927 33.688,82.878 33.716,82.827 C33.863,82.553 34.103,82.233 34.303,81.992 C34.657,82.756 35.512,84.233 37.317,85.827 C36.071,85.055 34.877,84.202 33.739,83.269 M86.32,44.131 C84.597,40.064 82.141,36.419 79.008,33.286 C75.877,30.159 72.231,27.698 68.169,25.978 C63.964,24.204 59.497,23.305 54.898,23.305 C50.292,23.305 45.826,24.204 41.62,25.978 C37.558,27.698 33.914,30.16 30.779,33.286 C27.65,36.419 25.191,40.064 23.477,44.132 C21.694,48.333 20.792,52.801 20.792,57.398 C20.792,62.006 21.694,66.476 23.477,70.676 C25.191,74.734 27.65,78.383 30.779,81.514 C33.914,84.643 37.558,87.104 41.619,88.823 C42.892,89.361 44.189,89.818 45.506,90.194 C45.518,90.198 45.528,90.202 45.54,90.206 C46.201,90.413 46.872,90.577 47.547,90.709 C49.944,91.235 52.4,91.502 54.898,91.502 C56.419,91.502 57.926,91.401 59.414,91.205 L59.425,91.205 C60.292,91.155 60.902,91.024 61.305,90.9 C63.653,90.455 65.949,89.763 68.169,88.823 C72.231,87.104 75.877,84.643 79.008,81.514 L78.766,81.272 L79.008,81.514 C82.141,78.383 84.597,74.734 86.32,70.676 C88.094,66.476 88.995,62.006 88.995,57.398 C88.995,52.801 88.094,48.333 86.32,44.131" fill="#FFFFFE"/>
      <path d="M15.835,60.267 C16.228,60.216 16.565,60.22 16.846,60.278 C17.127,60.337 17.365,60.453 17.56,60.623 C17.754,60.795 17.909,61.024 18.023,61.31 C18.137,61.595 18.22,61.939 18.273,62.342 C18.317,62.686 18.322,63.004 18.287,63.295 C18.251,63.587 18.165,63.844 18.026,64.068 C17.889,64.29 17.697,64.474 17.45,64.619 C17.204,64.763 16.617,64.887 16.617,64.887 C16.561,64.899 16.469,64.914 16.413,64.921 L13.391,65.317 C13.335,65.325 13.286,65.376 13.283,65.434 L13.257,65.879 C13.254,65.936 13.205,65.989 13.148,65.996 L13.015,66.014 C12.959,66.021 12.906,65.981 12.898,65.924 L12.632,63.889 C12.626,63.832 12.666,63.781 12.722,63.773 L12.856,63.755 C12.912,63.748 12.973,63.787 12.991,63.84 L13.128,64.256 C13.147,64.311 13.208,64.349 13.264,64.341 L16.647,63.9 C17.061,63.845 17.371,63.679 17.578,63.401 C17.785,63.121 17.857,62.739 17.793,62.249 C17.727,61.745 17.555,61.394 17.278,61.198 C17.001,61.001 16.159,61.008 16.159,61.008 C16.102,61.008 16.009,61.015 15.953,61.023 L12.882,61.424 C12.826,61.431 12.777,61.484 12.774,61.541 L12.748,61.986 C12.745,62.043 12.696,62.095 12.639,62.103 L12.506,62.121 C12.449,62.128 12.397,62.087 12.39,62.031 L12.151,60.205 C12.144,60.149 12.184,60.097 12.24,60.089 L12.374,60.073 C12.43,60.065 12.491,60.103 12.509,60.157 L12.648,60.581 C12.666,60.635 12.727,60.673 12.783,60.666 z" fill="#FFFFFE"/>
      <path d="M12.186,55.534 C12.19,55.476 12.234,55.406 12.283,55.378 L16.552,52.835 L12.98,52.571 C12.923,52.567 12.864,52.608 12.849,52.664 L12.734,53.087 C12.719,53.141 12.66,53.182 12.603,53.179 L12.469,53.169 C12.413,53.164 12.37,53.114 12.374,53.057 L12.507,51.303 C12.511,51.246 12.561,51.203 12.618,51.207 L12.752,51.218 C12.809,51.221 12.861,51.271 12.867,51.328 L12.917,51.771 C12.923,51.828 12.975,51.878 13.032,51.883 L18.091,52.266 C18.147,52.27 18.19,52.321 18.186,52.378 L18.148,52.876 C18.144,52.932 18.101,53.003 18.051,53.032 L13.12,55.925 L17.275,56.239 C17.332,56.244 17.391,56.203 17.406,56.147 L17.521,55.724 C17.536,55.67 17.595,55.628 17.651,55.633 L17.786,55.642 C17.842,55.646 17.885,55.696 17.881,55.753 L17.748,57.509 C17.744,57.565 17.693,57.608 17.637,57.604 L17.503,57.594 C17.446,57.59 17.394,57.54 17.388,57.483 L17.338,57.039 C17.332,56.983 17.28,56.932 17.223,56.929 L12.676,56.584 C12.619,56.58 12.56,56.621 12.545,56.677 L12.429,57.107 C12.414,57.162 12.355,57.204 12.298,57.199 L12.165,57.189 C12.107,57.185 12.065,57.135 12.069,57.078 z" fill="#FFFFFE"/>
      <path d="M13.939,46.06 C13.995,46.074 14.037,46.131 14.034,46.188 L14.01,46.626 C14.007,46.683 14.049,46.742 14.105,46.755 L18.53,47.86 C18.585,47.874 18.65,47.843 18.674,47.791 L18.858,47.394 C18.882,47.342 18.947,47.311 19.002,47.325 L19.133,47.357 C19.189,47.372 19.223,47.428 19.209,47.483 L18.711,49.475 C18.697,49.53 18.641,49.564 18.586,49.549 L18.455,49.517 C18.4,49.503 18.357,49.445 18.36,49.388 L18.384,48.951 C18.387,48.894 18.345,48.836 18.289,48.822 L13.865,47.717 C13.81,47.704 13.745,47.734 13.721,47.786 L13.536,48.183 C13.512,48.235 13.447,48.266 13.392,48.252 L13.261,48.219 C13.206,48.206 13.172,48.15 13.186,48.094 L13.683,46.103 C13.697,46.047 13.753,46.014 13.809,46.028 z" fill="#FFFFFE"/>
      <path d="M20.873,42.702 C20.914,42.742 20.929,42.817 20.907,42.87 L20.666,43.434 C20.644,43.487 20.58,43.526 20.522,43.523 L15.151,43.16 C15.094,43.156 15.02,43.191 14.987,43.236 L14.79,43.508 C14.756,43.554 14.686,43.573 14.633,43.551 L14.509,43.498 C14.457,43.476 14.432,43.415 14.455,43.362 L15.191,41.631 C15.214,41.578 15.275,41.554 15.327,41.576 L15.451,41.629 C15.504,41.65 15.538,41.715 15.528,41.77 L15.464,42.116 C15.454,42.173 15.492,42.222 15.549,42.226 L19.863,42.56 L16.695,39.529 C16.654,39.49 16.594,39.497 16.561,39.544 L16.324,39.892 C16.292,39.94 16.223,39.961 16.17,39.938 L16.046,39.886 C15.994,39.863 15.969,39.802 15.992,39.75 L16.655,38.19 C16.678,38.138 16.739,38.113 16.791,38.136 L16.915,38.188 C16.968,38.211 17.001,38.274 16.989,38.33 L16.905,38.736 C16.894,38.791 16.917,38.87 16.958,38.909 z" fill="#FFFFFE"/>
      <path d="M31.664,27.962 C31.793,27.928 31.928,27.877 32.067,27.811 C32.207,27.745 32.32,27.679 32.408,27.615 C32.717,27.386 32.91,27.141 32.986,26.879 C33.061,26.617 33.008,26.361 32.824,26.113 C32.714,25.965 32.588,25.862 32.445,25.806 C32.302,25.75 32.151,25.721 31.99,25.718 C31.83,25.715 31.664,25.73 31.493,25.762 C31.321,25.794 31.15,25.822 30.98,25.848 C30.722,25.882 30.489,25.913 30.28,25.941 C30.07,25.967 29.879,25.97 29.706,25.949 C29.532,25.93 29.372,25.877 29.226,25.793 C29.08,25.71 28.94,25.578 28.808,25.399 C28.663,25.203 28.576,24.999 28.548,24.787 C28.519,24.576 28.542,24.362 28.617,24.149 C28.692,23.936 28.815,23.725 28.987,23.516 C29.16,23.308 29.375,23.108 29.632,22.918 C29.728,22.847 29.836,22.776 29.957,22.708 C30.078,22.639 30.201,22.573 30.327,22.51 C30.453,22.448 30.577,22.391 30.701,22.34 C30.825,22.289 30.939,22.253 30.939,22.253 C30.994,22.236 31.05,22.232 31.064,22.243 C31.079,22.255 31.113,22.306 31.141,22.355 L31.573,23.115 C31.601,23.165 31.586,23.233 31.541,23.268 L31.256,23.478 C31.211,23.511 31.137,23.509 31.094,23.473 L30.563,23.028 C30.47,23.03 30.361,23.056 30.235,23.105 C30.11,23.153 29.973,23.233 29.825,23.342 C29.559,23.539 29.393,23.757 29.329,23.997 C29.264,24.237 29.311,24.467 29.473,24.685 C29.576,24.825 29.687,24.921 29.808,24.974 C29.928,25.026 30.055,25.054 30.191,25.055 C30.327,25.056 30.468,25.041 30.613,25.011 C30.759,24.981 30.91,24.951 31.065,24.924 C31.279,24.895 31.502,24.859 31.735,24.818 C31.968,24.778 32.194,24.763 32.414,24.773 C32.633,24.781 32.839,24.826 33.033,24.906 C33.227,24.985 33.393,25.129 33.533,25.336 C33.71,25.603 33.81,25.858 33.834,26.1 C33.858,26.342 33.826,26.573 33.737,26.794 C33.647,27.015 33.505,27.229 33.31,27.434 C33.115,27.639 32.886,27.838 32.625,28.031 C32.389,28.205 32.143,28.356 31.886,28.482 C31.629,28.608 31.294,28.743 31.294,28.743 C31.242,28.765 31.188,28.772 31.176,28.758 C31.164,28.746 31.13,28.694 31.101,28.646 L30.664,27.889 C30.636,27.839 30.65,27.771 30.696,27.737 L30.98,27.526 C31.026,27.492 31.1,27.495 31.143,27.531 z" fill="#FFFFFE"/>
      <path d="M35.752,19.553 C35.779,19.604 35.765,19.674 35.721,19.71 L35.38,19.987 C35.337,20.023 35.322,20.093 35.35,20.143 L37.508,24.161 C37.536,24.211 37.602,24.238 37.656,24.221 L38.075,24.09 C38.13,24.074 38.196,24.1 38.223,24.151 L38.287,24.269 C38.314,24.319 38.294,24.382 38.245,24.409 L36.437,25.381 C36.386,25.408 36.323,25.389 36.296,25.339 L36.232,25.22 C36.205,25.17 36.22,25.1 36.264,25.064 L36.604,24.786 C36.648,24.75 36.662,24.681 36.635,24.63 L34.476,20.614 C34.449,20.563 34.382,20.535 34.328,20.553 L33.91,20.683 C33.856,20.7 33.789,20.673 33.762,20.623 L33.698,20.505 C33.671,20.454 33.69,20.391 33.74,20.365 L35.548,19.392 C35.598,19.365 35.661,19.385 35.689,19.435 z" fill="#FFFFFE"/>
      <path d="M37.998,18.24 C38.01,18.207 38.064,18.165 38.117,18.145 L42.338,16.61 C42.392,16.591 42.457,16.582 42.485,16.592 C42.512,16.6 42.551,16.651 42.573,16.704 L42.936,17.607 C42.958,17.66 42.932,17.719 42.878,17.738 L42.538,17.862 C42.484,17.882 42.415,17.859 42.382,17.811 L42.085,17.372 C42.054,17.324 41.983,17.299 41.928,17.315 L41.487,17.446 C41.432,17.462 41.344,17.491 41.29,17.511 L40.861,17.666 L42.446,22.028 C42.466,22.081 42.527,22.118 42.583,22.108 L43.017,22.039 C43.073,22.03 43.135,22.066 43.154,22.12 L43.201,22.247 C43.22,22.301 43.192,22.36 43.139,22.379 L41.209,23.081 C41.156,23.1 41.096,23.072 41.077,23.018 L41.031,22.891 C41.011,22.839 41.035,22.77 41.084,22.742 L41.46,22.516 C41.51,22.487 41.534,22.42 41.514,22.366 L39.927,18.005 L39.499,18.162 C39.445,18.181 39.359,18.216 39.306,18.239 L38.884,18.423 C38.831,18.445 38.793,18.511 38.799,18.567 L38.854,19.094 C38.861,19.151 38.822,19.214 38.768,19.233 L38.428,19.356 C38.374,19.376 38.316,19.347 38.299,19.293 L38.009,18.398 C37.991,18.344 37.987,18.273 37.998,18.24" fill="#FFFFFE"/>
      <path d="M46.962,16.353 L46.53,18.752 L48.12,18.453 z M48.333,18.834 L46.447,19.191 L46.156,20.918 C46.147,20.974 46.186,21.021 46.243,21.023 L46.633,21.03 C46.691,21.031 46.746,21.078 46.756,21.134 L46.781,21.266 C46.792,21.322 46.754,21.376 46.699,21.387 L45.049,21.699 C44.993,21.708 44.939,21.671 44.928,21.616 L44.903,21.483 C44.893,21.427 44.927,21.364 44.979,21.341 L45.317,21.198 C45.37,21.176 45.421,21.112 45.432,21.056 L46.473,15.632 C46.483,15.577 46.538,15.522 46.594,15.511 L47.317,15.374 C47.373,15.365 47.442,15.396 47.47,15.446 L50.154,20.163 C50.182,20.212 50.252,20.254 50.309,20.255 L50.667,20.267 C50.724,20.269 50.779,20.316 50.79,20.372 L50.815,20.504 C50.825,20.56 50.788,20.615 50.732,20.624 L48.843,20.982 C48.787,20.992 48.733,20.956 48.722,20.9 L48.697,20.767 C48.687,20.71 48.721,20.647 48.773,20.624 L49.111,20.481 C49.164,20.459 49.184,20.4 49.157,20.35 z" fill="#FFFFFE"/>
      <path d="M53.555,19.998 C53.68,20.046 53.818,20.085 53.97,20.113 C54.121,20.143 54.252,20.157 54.36,20.156 C54.745,20.155 55.045,20.071 55.262,19.904 C55.477,19.738 55.585,19.501 55.584,19.191 C55.583,19.007 55.541,18.85 55.46,18.721 C55.378,18.59 55.273,18.477 55.145,18.38 C55.017,18.282 54.875,18.197 54.717,18.121 C54.56,18.046 54.405,17.968 54.253,17.887 C54.025,17.764 53.818,17.65 53.634,17.548 C53.449,17.446 53.292,17.336 53.165,17.217 C53.037,17.098 52.939,16.962 52.87,16.807 C52.802,16.652 52.767,16.465 52.766,16.242 C52.765,15.998 52.816,15.782 52.918,15.595 C53.02,15.407 53.164,15.249 53.351,15.121 C53.537,14.992 53.761,14.894 54.024,14.829 C54.286,14.763 54.577,14.729 54.897,14.727 C55.016,14.727 55.145,14.734 55.284,14.75 C55.422,14.766 55.56,14.786 55.699,14.81 C55.837,14.834 55.972,14.861 56.101,14.893 C56.231,14.925 56.345,14.964 56.345,14.964 C56.399,14.982 56.447,15.013 56.451,15.029 C56.455,15.048 56.454,15.108 56.448,15.166 L56.346,16.034 C56.34,16.091 56.288,16.138 56.231,16.138 L55.877,16.139 C55.82,16.14 55.763,16.094 55.749,16.039 L55.583,15.367 C55.507,15.313 55.404,15.269 55.273,15.234 C55.143,15.2 54.986,15.183 54.802,15.184 C54.471,15.185 54.209,15.264 54.014,15.419 C53.82,15.574 53.723,15.787 53.724,16.059 C53.725,16.232 53.758,16.376 53.824,16.49 C53.889,16.602 53.976,16.7 54.085,16.781 C54.194,16.862 54.316,16.934 54.452,16.995 C54.588,17.058 54.726,17.123 54.868,17.193 C55.058,17.295 55.259,17.398 55.471,17.504 C55.682,17.608 55.874,17.729 56.045,17.867 C56.216,18.005 56.357,18.163 56.466,18.342 C56.575,18.519 56.624,18.734 56.615,18.983 C56.6,19.304 56.531,19.568 56.407,19.777 C56.284,19.987 56.12,20.154 55.918,20.28 C55.715,20.406 55.474,20.493 55.195,20.544 C54.916,20.594 54.614,20.619 54.289,20.62 C53.996,20.622 53.709,20.598 53.427,20.547 C53.145,20.497 52.795,20.409 52.795,20.409 C52.741,20.394 52.693,20.369 52.691,20.352 C52.688,20.334 52.692,20.272 52.698,20.216 L52.792,19.347 C52.799,19.291 52.85,19.244 52.907,19.244 L53.261,19.242 C53.318,19.242 53.376,19.287 53.39,19.342 z" fill="#FFFFFE"/>
      <path d="M68.804,18.207 C68.653,17.73 68.323,17.41 67.813,17.244 C67.297,17.077 66.839,17.138 66.439,17.424 C66.039,17.71 65.708,18.256 65.447,19.061 C65.182,19.876 65.124,20.521 65.272,20.997 C65.42,21.473 65.752,21.794 66.267,21.961 C66.783,22.128 67.241,22.068 67.641,21.782 C68.041,21.495 68.372,20.949 68.633,20.145 C68.897,19.33 68.954,18.684 68.804,18.207 M68.292,22.305 C67.672,22.638 66.938,22.666 66.094,22.393 C65.686,22.26 65.342,22.083 65.06,21.86 C64.779,21.639 64.565,21.375 64.419,21.071 C64.273,20.767 64.197,20.425 64.192,20.044 C64.188,19.663 64.258,19.248 64.404,18.8 C64.555,18.33 64.751,17.937 64.991,17.621 C65.229,17.306 65.502,17.066 65.809,16.903 C66.115,16.739 66.451,16.65 66.818,16.636 C67.184,16.621 67.569,16.678 67.971,16.809 C68.373,16.938 68.716,17.115 69,17.339 C69.283,17.561 69.499,17.826 69.648,18.135 C69.796,18.441 69.873,18.788 69.88,19.172 C69.886,19.556 69.816,19.975 69.669,20.429 C69.371,21.348 68.912,21.973 68.292,22.305" fill="#FFFFFE"/>
      <path d="M71.636,23.978 C71.722,24.081 71.824,24.181 71.944,24.28 C72.063,24.378 72.17,24.453 72.265,24.504 C72.603,24.688 72.907,24.759 73.177,24.717 C73.446,24.675 73.655,24.518 73.802,24.247 C73.89,24.084 73.929,23.927 73.92,23.774 C73.911,23.621 73.873,23.471 73.808,23.324 C73.743,23.177 73.659,23.034 73.557,22.892 C73.455,22.75 73.357,22.608 73.262,22.463 C73.122,22.246 72.995,22.046 72.883,21.869 C72.77,21.69 72.686,21.518 72.631,21.352 C72.576,21.186 72.556,21.02 72.57,20.851 C72.584,20.683 72.645,20.501 72.75,20.306 C72.867,20.092 73.015,19.926 73.195,19.812 C73.374,19.696 73.577,19.626 73.802,19.604 C74.028,19.582 74.271,19.604 74.533,19.672 C74.795,19.741 75.066,19.851 75.347,20.003 C75.452,20.06 75.562,20.128 75.675,20.208 C75.789,20.289 75.901,20.374 76.011,20.46 C76.12,20.548 76.224,20.637 76.324,20.727 C76.422,20.818 76.503,20.907 76.503,20.907 C76.541,20.949 76.569,20.998 76.564,21.016 C76.56,21.034 76.529,21.086 76.496,21.133 L75.99,21.845 C75.956,21.892 75.888,21.908 75.838,21.881 L75.528,21.711 C75.477,21.685 75.449,21.618 75.463,21.562 L75.641,20.894 C75.6,20.81 75.531,20.721 75.434,20.628 C75.336,20.536 75.206,20.445 75.045,20.357 C74.754,20.2 74.486,20.142 74.24,20.185 C73.995,20.228 73.808,20.369 73.679,20.607 C73.596,20.759 73.556,20.901 73.559,21.032 C73.562,21.164 73.591,21.29 73.648,21.414 C73.704,21.537 73.777,21.658 73.866,21.778 C73.956,21.897 74.046,22.021 74.136,22.151 C74.253,22.332 74.379,22.519 74.514,22.712 C74.65,22.907 74.76,23.105 74.844,23.308 C74.928,23.511 74.974,23.717 74.985,23.926 C74.994,24.135 74.935,24.347 74.806,24.561 C74.639,24.834 74.451,25.033 74.242,25.158 C74.033,25.281 73.809,25.349 73.571,25.362 C73.333,25.375 73.08,25.336 72.811,25.246 C72.543,25.156 72.265,25.033 71.98,24.877 C71.722,24.738 71.483,24.579 71.26,24.399 C71.036,24.218 70.772,23.974 70.772,23.974 C70.73,23.934 70.701,23.889 70.708,23.873 C70.715,23.856 70.746,23.803 70.779,23.757 L71.28,23.04 C71.313,22.995 71.381,22.979 71.431,23.005 L71.741,23.174 C71.792,23.202 71.821,23.269 71.806,23.324 z" fill="#FFFFFE"/>
      <path d="M77.561,27.717 C77.525,27.762 77.534,27.827 77.579,27.863 L78.279,28.412 C78.324,28.447 78.399,28.503 78.446,28.534 L78.819,28.791 C78.866,28.823 78.94,28.821 78.985,28.785 L79.441,28.417 C79.485,28.381 79.559,28.381 79.603,28.416 L79.888,28.64 C79.933,28.674 79.939,28.738 79.903,28.782 L79.297,29.502 C79.26,29.545 79.214,29.596 79.194,29.614 C79.173,29.633 79.12,29.619 79.076,29.584 L76.04,27.204 C75.995,27.169 75.987,27.104 76.022,27.059 L76.105,26.953 C76.14,26.908 76.211,26.893 76.261,26.919 L76.651,27.119 C76.702,27.145 76.772,27.13 76.807,27.085 L79.621,23.496 C79.656,23.451 79.654,23.379 79.617,23.336 L79.329,23.005 C79.292,22.962 79.29,22.89 79.325,22.845 L79.408,22.74 C79.443,22.696 79.508,22.687 79.553,22.722 L81.162,23.984 C81.207,24.019 81.215,24.084 81.18,24.129 L81.097,24.235 C81.061,24.279 80.992,24.295 80.941,24.269 L80.551,24.069 C80.5,24.042 80.429,24.058 80.394,24.103 z" fill="#FFFFFE"/>
      <path d="M86.824,30.841 C86.938,30.355 86.817,29.91 86.462,29.508 C86.104,29.102 85.679,28.92 85.189,28.962 C84.699,29.005 84.136,29.306 83.501,29.865 C82.858,30.433 82.48,30.958 82.365,31.443 C82.249,31.927 82.37,32.372 82.729,32.779 C83.088,33.186 83.512,33.367 84.003,33.325 C84.493,33.282 85.056,32.982 85.69,32.422 C86.333,31.855 86.711,31.328 86.824,30.841 M84.296,34.107 C83.593,34.076 82.948,33.728 82.36,33.061 C82.077,32.739 81.871,32.412 81.742,32.077 C81.614,31.743 81.564,31.408 81.593,31.072 C81.622,30.736 81.731,30.403 81.921,30.072 C82.111,29.742 82.383,29.421 82.736,29.11 C83.107,28.782 83.475,28.544 83.842,28.395 C84.208,28.244 84.565,28.178 84.912,28.194 C85.259,28.209 85.594,28.304 85.917,28.478 C86.24,28.652 86.541,28.897 86.821,29.214 C87.101,29.53 87.305,29.858 87.436,30.194 C87.567,30.53 87.617,30.869 87.588,31.209 C87.559,31.549 87.449,31.886 87.259,32.22 C87.069,32.554 86.795,32.878 86.437,33.195 C85.713,33.832 84.999,34.137 84.296,34.107" fill="#FFFFFE"/>
      <path d="M89.155,37.685 C89.198,37.649 89.21,37.579 89.181,37.529 L88.563,36.479 L86.53,37.704 L87.195,38.823 C87.224,38.872 87.274,38.95 87.306,38.997 L87.561,39.371 C87.593,39.418 87.663,39.442 87.717,39.424 L88.273,39.241 C88.326,39.223 88.395,39.248 88.424,39.297 L88.613,39.616 C88.642,39.664 88.625,39.727 88.574,39.754 L87.749,40.206 C87.699,40.234 87.638,40.264 87.613,40.274 C87.587,40.284 87.542,40.251 87.513,40.203 L85.377,36.607 C85.348,36.558 85.364,36.494 85.414,36.465 L85.529,36.396 C85.578,36.367 85.649,36.377 85.687,36.42 L85.978,36.748 C86.016,36.791 86.087,36.802 86.136,36.773 L90.057,34.444 C90.106,34.414 90.13,34.347 90.111,34.293 L89.962,33.881 C89.943,33.828 89.968,33.76 90.016,33.731 L90.132,33.663 C90.181,33.633 90.245,33.649 90.274,33.698 L92.311,37.126 C92.34,37.175 92.361,37.24 92.358,37.271 C92.355,37.301 92.314,37.351 92.266,37.381 L91.447,37.907 C91.399,37.938 91.336,37.923 91.307,37.873 L91.121,37.562 C91.093,37.514 91.102,37.442 91.144,37.403 L91.588,36.984 C91.629,36.945 91.642,36.872 91.616,36.821 L91.405,36.411 C91.379,36.36 91.334,36.279 91.304,36.23 L90.706,35.215 L88.908,36.288 L89.528,37.332 C89.557,37.381 89.624,37.406 89.677,37.385 L90.088,37.231 C90.141,37.211 90.208,37.236 90.237,37.285 L90.393,37.546 C90.422,37.596 90.405,37.66 90.357,37.689 L89.031,38.476 C88.982,38.505 88.918,38.489 88.889,38.44 L88.733,38.178 C88.704,38.129 88.716,38.058 88.759,38.022 z" fill="#FFFFFE"/>
      <path d="M21.955,35.255 C21.903,35.233 21.834,35.253 21.803,35.301 L21.134,36.318 L23.13,37.602 L23.84,36.512 C23.871,36.464 23.919,36.384 23.948,36.334 L24.171,35.942 C24.199,35.892 24.189,35.818 24.149,35.777 L23.74,35.359 C23.7,35.319 23.693,35.247 23.724,35.199 L23.926,34.889 C23.957,34.842 24.02,34.829 24.067,34.861 L24.837,35.403 C24.884,35.436 24.938,35.478 24.958,35.496 C24.978,35.515 24.969,35.569 24.938,35.617 L22.654,39.121 C22.623,39.168 22.559,39.182 22.511,39.151 L22.398,39.077 C22.351,39.046 22.329,38.978 22.351,38.925 L22.517,38.519 C22.538,38.466 22.517,38.398 22.469,38.366 L18.648,35.876 C18.6,35.845 18.529,35.854 18.49,35.894 L18.185,36.209 C18.145,36.25 18.074,36.258 18.026,36.227 L17.913,36.153 C17.866,36.122 17.852,36.058 17.883,36.01 L20.06,32.67 C20.091,32.622 20.14,32.574 20.169,32.564 C20.197,32.553 20.26,32.568 20.309,32.598 L21.142,33.101 C21.191,33.13 21.205,33.193 21.174,33.241 L20.977,33.544 C20.946,33.592 20.876,33.614 20.823,33.595 L20.251,33.382 C20.198,33.361 20.127,33.383 20.093,33.429 L19.818,33.798 C19.784,33.844 19.731,33.92 19.7,33.968 L19.053,34.953 L20.81,36.093 L21.474,35.075 C21.505,35.028 21.497,34.957 21.455,34.918 L21.136,34.618 C21.095,34.579 21.086,34.508 21.117,34.461 L21.284,34.205 C21.315,34.157 21.379,34.144 21.427,34.175 L22.719,35.017 C22.767,35.048 22.781,35.112 22.749,35.16 L22.583,35.416 C22.552,35.464 22.483,35.484 22.431,35.461 z" fill="#FFFFFE"/>
      <path d="M94.623,42.166 C94.641,42.22 94.629,42.302 94.596,42.348 L91.684,46.38 L95.072,45.2 C95.125,45.181 95.163,45.12 95.155,45.063 L95.092,44.629 C95.084,44.572 95.122,44.512 95.175,44.493 L95.303,44.449 C95.356,44.43 95.416,44.459 95.434,44.514 L96.009,46.176 C96.028,46.229 95.999,46.289 95.945,46.309 L95.818,46.352 C95.765,46.37 95.697,46.346 95.668,46.296 L95.447,45.908 C95.418,45.859 95.351,45.834 95.297,45.853 L90.502,47.511 C90.449,47.529 90.39,47.5 90.371,47.447 L90.207,46.975 C90.189,46.92 90.201,46.839 90.235,46.792 L93.613,42.176 L89.672,43.54 C89.618,43.56 89.581,43.62 89.589,43.677 L89.651,44.111 C89.66,44.168 89.622,44.229 89.568,44.247 L89.441,44.291 C89.387,44.311 89.328,44.281 89.31,44.228 L88.734,42.563 C88.715,42.511 88.744,42.45 88.798,42.432 L88.925,42.389 C88.979,42.369 89.046,42.395 89.074,42.444 L89.297,42.831 C89.325,42.881 89.393,42.906 89.446,42.888 L93.756,41.396 C93.81,41.378 93.847,41.317 93.839,41.261 L93.775,40.819 C93.766,40.763 93.804,40.701 93.857,40.683 L93.985,40.638 C94.039,40.62 94.098,40.648 94.116,40.702 z" fill="#FFFFFE"/>
      <path d="M91.63,50.888 C91.6,51.018 91.58,51.16 91.572,51.315 C91.565,51.469 91.568,51.6 91.584,51.707 C91.639,52.088 91.763,52.373 91.958,52.565 C92.152,52.756 92.403,52.829 92.709,52.785 C92.892,52.759 93.041,52.697 93.159,52.597 C93.276,52.498 93.374,52.378 93.452,52.239 C93.53,52.099 93.596,51.946 93.649,51.78 C93.702,51.614 93.757,51.449 93.817,51.287 C93.907,51.044 93.991,50.824 94.067,50.627 C94.143,50.43 94.231,50.26 94.33,50.117 C94.431,49.974 94.552,49.858 94.696,49.768 C94.839,49.68 95.021,49.619 95.241,49.587 C95.482,49.553 95.703,49.574 95.903,49.649 C96.103,49.723 96.279,49.845 96.432,50.011 C96.585,50.178 96.712,50.387 96.814,50.638 C96.916,50.889 96.99,51.173 97.035,51.49 C97.052,51.608 97.063,51.736 97.066,51.874 C97.069,52.014 97.069,52.154 97.065,52.293 C97.06,52.434 97.051,52.571 97.038,52.703 C97.024,52.838 97.001,52.955 97.001,52.955 C96.99,53.012 96.967,53.063 96.95,53.07 C96.933,53.077 96.873,53.084 96.816,53.084 L95.941,53.105 C95.884,53.106 95.831,53.061 95.823,53.004 L95.773,52.655 C95.765,52.598 95.801,52.534 95.854,52.513 L96.496,52.256 C96.539,52.174 96.568,52.066 96.585,51.932 C96.602,51.798 96.596,51.64 96.57,51.457 C96.523,51.13 96.409,50.881 96.229,50.71 C96.047,50.538 95.823,50.473 95.554,50.512 C95.383,50.536 95.245,50.589 95.142,50.669 C95.038,50.75 94.954,50.85 94.889,50.969 C94.824,51.087 94.77,51.219 94.727,51.362 C94.685,51.504 94.639,51.651 94.589,51.8 C94.514,52.002 94.44,52.216 94.365,52.44 C94.29,52.664 94.197,52.87 94.084,53.06 C93.972,53.248 93.834,53.409 93.672,53.541 C93.511,53.674 93.306,53.753 93.057,53.778 C92.738,53.808 92.466,53.776 92.242,53.682 C92.018,53.588 91.83,53.45 91.677,53.267 C91.524,53.083 91.404,52.857 91.316,52.587 C91.228,52.319 91.161,52.023 91.114,51.701 C91.073,51.411 91.057,51.123 91.068,50.837 C91.079,50.55 91.118,50.193 91.118,50.193 C91.124,50.136 91.143,50.085 91.161,50.08 C91.178,50.075 91.238,50.071 91.296,50.069 L92.169,50.042 C92.226,50.04 92.279,50.086 92.287,50.142 L92.338,50.492 C92.346,50.548 92.309,50.613 92.257,50.633 z" fill="#FFFFFE"/>
      <path d="M97.105,58.572 C97.048,58.572 96.992,58.526 96.981,58.47 L96.896,58.04 C96.885,57.984 96.83,57.938 96.773,57.938 L92.212,57.959 C92.155,57.959 92.1,58.005 92.089,58.06 L92.008,58.492 C91.998,58.548 91.943,58.593 91.886,58.593 L91.751,58.594 C91.694,58.594 91.647,58.549 91.647,58.491 L91.638,56.439 C91.638,56.383 91.685,56.335 91.741,56.335 L91.876,56.335 C91.933,56.334 91.988,56.38 92,56.435 L92.084,56.866 C92.095,56.922 92.151,56.968 92.208,56.967 L96.769,56.948 C96.826,56.947 96.881,56.901 96.891,56.845 L96.972,56.414 C96.982,56.357 97.038,56.311 97.095,56.311 L97.229,56.31 C97.287,56.31 97.333,56.357 97.334,56.414 L97.343,58.467 C97.343,58.523 97.296,58.57 97.239,58.57 z" fill="#FFFFFE"/>
      <path d="M91.886,62.045 C91.819,62.16 91.759,62.29 91.705,62.436 C91.653,62.581 91.618,62.707 91.601,62.815 C91.541,63.194 91.576,63.504 91.706,63.744 C91.836,63.983 92.053,64.128 92.359,64.176 C92.542,64.204 92.703,64.189 92.844,64.128 C92.986,64.068 93.114,63.983 93.23,63.872 C93.346,63.762 93.454,63.635 93.553,63.491 C93.653,63.348 93.754,63.207 93.858,63.069 C94.017,62.864 94.161,62.679 94.292,62.512 C94.422,62.346 94.556,62.21 94.694,62.103 C94.832,61.994 94.982,61.92 95.145,61.877 C95.308,61.834 95.5,61.83 95.719,61.864 C95.961,61.901 96.166,61.986 96.334,62.117 C96.504,62.248 96.636,62.415 96.734,62.619 C96.83,62.824 96.891,63.062 96.914,63.331 C96.938,63.601 96.925,63.894 96.875,64.209 C96.857,64.327 96.828,64.453 96.791,64.587 C96.754,64.722 96.712,64.855 96.667,64.987 C96.621,65.12 96.572,65.247 96.52,65.371 C96.468,65.495 96.411,65.601 96.411,65.601 C96.385,65.65 96.347,65.693 96.329,65.695 C96.311,65.696 96.251,65.685 96.196,65.67 L95.355,65.432 C95.3,65.416 95.262,65.358 95.271,65.301 L95.326,64.951 C95.335,64.896 95.388,64.846 95.446,64.841 L96.135,64.784 C96.199,64.718 96.26,64.623 96.315,64.5 C96.37,64.377 96.411,64.225 96.44,64.042 C96.491,63.716 96.456,63.444 96.333,63.228 C96.211,63.011 96.016,62.881 95.747,62.84 C95.576,62.813 95.429,62.822 95.306,62.869 C95.184,62.916 95.074,62.986 94.977,63.08 C94.88,63.175 94.79,63.284 94.707,63.408 C94.625,63.532 94.537,63.659 94.446,63.787 C94.315,63.959 94.18,64.141 94.043,64.333 C93.906,64.525 93.756,64.695 93.593,64.843 C93.43,64.989 93.252,65.103 93.057,65.182 C92.865,65.262 92.645,65.276 92.4,65.227 C92.086,65.161 91.836,65.051 91.649,64.896 C91.462,64.739 91.323,64.552 91.231,64.332 C91.139,64.111 91.091,63.86 91.086,63.577 C91.081,63.294 91.103,62.991 91.154,62.67 C91.199,62.381 91.27,62.101 91.364,61.831 C91.458,61.561 91.601,61.23 91.601,61.23 C91.623,61.177 91.657,61.135 91.675,61.135 C91.693,61.136 91.753,61.149 91.808,61.163 L92.65,61.396 C92.705,61.41 92.742,61.469 92.734,61.525 L92.679,61.875 C92.67,61.932 92.616,61.981 92.56,61.986 z" fill="#FFFFFE"/>
      <path d="M30.339,91.414 C30.39,91.437 30.459,91.419 30.49,91.371 L32.839,87.998 L28.467,90.475 C28.417,90.502 28.34,90.496 28.296,90.46 L28.121,90.318 C28.077,90.282 28.053,90.207 28.068,90.152 L29.332,85.431 L26.678,88.322 C26.637,88.362 26.631,88.433 26.665,88.478 L26.931,88.84 C26.965,88.887 26.961,88.958 26.922,89 L26.831,89.098 C26.792,89.139 26.726,89.142 26.685,89.101 L25.391,87.896 C25.349,87.857 25.347,87.792 25.385,87.75 L25.477,87.652 C25.516,87.61 25.587,87.601 25.635,87.631 L26.008,87.867 C26.057,87.896 26.129,87.889 26.169,87.849 L29.172,84.518 C29.209,84.475 29.21,84.404 29.173,84.36 L28.889,84.023 C28.852,83.979 28.852,83.907 28.887,83.863 L28.972,83.76 C29.007,83.715 29.073,83.708 29.118,83.745 L30.471,84.845 C30.516,84.881 30.54,84.955 30.526,85.01 L29.449,89.166 L33.154,87.147 C33.204,87.12 33.281,87.127 33.325,87.163 L34.622,88.217 C34.666,88.253 34.673,88.318 34.637,88.362 L34.552,88.467 C34.517,88.511 34.446,88.525 34.396,88.498 L34.007,88.289 C33.957,88.262 33.888,88.277 33.854,88.322 L31.294,91.961 C31.262,92.008 31.268,92.08 31.307,92.123 L31.608,92.445 C31.646,92.487 31.651,92.559 31.617,92.604 L31.538,92.713 C31.504,92.759 31.439,92.768 31.393,92.735 L29.729,91.516 C29.683,91.482 29.673,91.417 29.707,91.371 L29.786,91.264 C29.819,91.217 29.889,91.199 29.941,91.224 z" fill="#FFFFFE"/>
      <path d="M41.059,93.524 C41.116,93.21 41.108,92.925 41.038,92.67 C40.966,92.415 40.832,92.186 40.635,91.986 C40.438,91.785 39.949,91.492 39.949,91.492 C39.9,91.462 39.819,91.418 39.768,91.392 L39.25,91.125 L37.052,95.425 L37.545,95.679 C37.783,95.8 38.013,95.898 38.234,95.972 C38.456,96.046 38.67,96.081 38.874,96.076 C39.2,96.048 39.519,95.92 39.832,95.691 C40.144,95.462 40.432,95.091 40.693,94.581 C40.88,94.191 41.002,93.838 41.059,93.524 M40.132,91.123 C40.534,91.328 40.885,91.559 41.185,91.816 C41.485,92.072 41.711,92.359 41.863,92.677 C42.016,92.996 42.082,93.349 42.064,93.737 C42.046,94.126 41.917,94.553 41.678,95.021 C41.454,95.46 41.192,95.808 40.891,96.068 C40.59,96.328 40.263,96.501 39.91,96.587 C39.557,96.674 39.181,96.682 38.783,96.613 C38.385,96.543 37.648,96.225 37.648,96.225 C37.596,96.203 37.512,96.164 37.46,96.137 L35.486,95.128 C35.435,95.102 35.415,95.039 35.441,94.988 L35.502,94.87 C35.528,94.819 35.594,94.79 35.648,94.806 L36.072,94.929 C36.127,94.946 36.193,94.918 36.219,94.867 L38.289,90.816 C38.315,90.765 38.3,90.696 38.255,90.66 L37.907,90.389 C37.862,90.354 37.846,90.284 37.872,90.234 L37.933,90.114 C37.959,90.063 38.022,90.043 38.072,90.069 z" fill="#FFFFFE"/>
      <path d="M49.858,95.128 C49.845,94.937 49.852,94.903 49.845,94.769 C49.837,94.602 49.784,94.539 49.618,94.433 C49.552,94.391 49.479,94.357 49.402,94.322 C49.279,94.267 49.14,94.225 48.985,94.197 C48.701,94.146 48.435,94.149 48.187,94.205 C47.939,94.261 47.715,94.373 47.516,94.541 C47.317,94.708 47.147,94.931 47.004,95.211 C46.862,95.49 46.756,95.824 46.685,96.213 C46.536,97.038 46.594,97.681 46.862,98.142 C47.129,98.603 47.593,98.894 48.252,99.013 C48.444,99.048 48.653,99.062 48.879,99.053 C49.072,99.045 49.294,99.019 49.547,98.987 C49.679,98.971 49.691,99.067 49.691,99.067 L49.705,99.171 C49.705,99.171 49.718,99.291 49.619,99.328 C49.397,99.412 49.143,99.472 48.858,99.511 C48.529,99.556 48.169,99.543 47.778,99.472 C47.403,99.403 47.061,99.289 46.754,99.129 C46.445,98.968 46.191,98.754 45.99,98.486 C45.79,98.22 45.652,97.896 45.578,97.513 C45.504,97.131 45.512,96.685 45.606,96.173 C45.699,95.657 45.856,95.227 46.076,94.881 C46.297,94.536 46.563,94.268 46.875,94.073 C47.186,93.88 47.536,93.758 47.924,93.707 C48.313,93.657 48.723,93.671 49.157,93.75 C49.452,93.804 49.723,93.881 49.97,93.983 C50.141,94.056 50.303,94.128 50.456,94.203 C50.667,94.307 50.611,94.485 50.611,94.485 L50.385,95.232 C50.385,95.232 50.331,95.397 50.187,95.372 C50.058,95.35 49.981,95.334 49.981,95.334 C49.981,95.334 49.871,95.318 49.858,95.128" fill="#FFFFFE"/>
      <path d="M58.526,95.321 C58.468,95.139 58.467,95.105 58.429,94.975 C58.381,94.816 58.315,94.768 58.128,94.704 C58.055,94.678 57.975,94.662 57.892,94.646 C57.76,94.622 57.615,94.615 57.458,94.624 C57.169,94.64 56.911,94.707 56.684,94.821 C56.456,94.934 56.266,95.096 56.111,95.305 C55.957,95.515 55.845,95.772 55.773,96.078 C55.701,96.384 55.677,96.732 55.7,97.127 C55.75,97.964 55.96,98.575 56.329,98.96 C56.697,99.343 57.216,99.516 57.885,99.476 C58.081,99.465 58.287,99.428 58.504,99.367 C58.69,99.314 58.899,99.235 59.137,99.144 C59.261,99.097 59.297,99.188 59.297,99.188 L59.335,99.286 C59.335,99.286 59.376,99.399 59.288,99.46 C59.092,99.593 58.86,99.712 58.592,99.817 C58.283,99.938 57.93,100.01 57.533,100.034 C57.153,100.056 56.794,100.027 56.457,99.944 C56.119,99.861 55.821,99.713 55.563,99.501 C55.305,99.288 55.095,99.006 54.933,98.653 C54.77,98.299 54.672,97.862 54.642,97.343 C54.611,96.82 54.661,96.365 54.794,95.977 C54.926,95.591 55.121,95.265 55.378,95.004 C55.635,94.742 55.946,94.541 56.312,94.4 C56.676,94.258 57.079,94.175 57.519,94.149 C57.818,94.131 58.1,94.143 58.364,94.184 C58.548,94.213 58.723,94.245 58.888,94.281 C59.117,94.333 59.106,94.519 59.106,94.519 L59.063,95.299 C59.063,95.299 59.05,95.471 58.903,95.481 C58.773,95.49 58.695,95.492 58.695,95.492 C58.695,95.492 58.584,95.504 58.526,95.321" fill="#FFFFFE"/>
      <path d="M66.979,93.537 C66.885,93.37 66.876,93.338 66.812,93.22 C66.732,93.072 66.657,93.04 66.461,93.016 C66.384,93.007 66.303,93.008 66.219,93.011 C66.084,93.014 65.941,93.037 65.789,93.079 C65.511,93.156 65.272,93.274 65.074,93.433 C64.876,93.593 64.722,93.79 64.616,94.027 C64.509,94.265 64.454,94.541 64.447,94.853 C64.441,95.167 64.49,95.515 64.596,95.894 C64.82,96.703 65.153,97.256 65.595,97.555 C66.037,97.853 66.58,97.913 67.225,97.733 C67.414,97.682 67.607,97.602 67.808,97.497 C67.978,97.406 68.166,97.285 68.38,97.146 C68.491,97.074 68.545,97.156 68.545,97.156 L68.603,97.244 C68.603,97.244 68.667,97.346 68.594,97.423 C68.43,97.595 68.228,97.76 67.988,97.918 C67.711,98.102 67.381,98.247 66.999,98.353 C66.631,98.455 66.274,98.501 65.927,98.49 C65.579,98.479 65.257,98.398 64.96,98.245 C64.664,98.092 64.399,97.858 64.166,97.548 C63.932,97.236 63.746,96.83 63.607,96.329 C63.466,95.824 63.42,95.368 63.468,94.961 C63.517,94.555 63.639,94.197 63.835,93.887 C64.032,93.577 64.293,93.314 64.621,93.099 C64.949,92.886 65.325,92.72 65.75,92.601 C66.038,92.521 66.316,92.474 66.583,92.459 C66.769,92.448 66.946,92.443 67.115,92.444 C67.351,92.445 67.378,92.631 67.378,92.631 L67.501,93.402 C67.501,93.402 67.523,93.573 67.382,93.614 C67.257,93.649 67.181,93.669 67.181,93.669 C67.181,93.669 67.075,93.703 66.979,93.537" fill="#FFFFFE"/>
      <path d="M74.015,92.158 L71.504,91.019 C71.452,90.996 71.365,90.99 71.311,91.007 L70.934,91.124 C70.879,91.14 70.812,91.114 70.784,91.065 L70.718,90.948 C70.689,90.898 70.707,90.836 70.756,90.806 L72.563,89.778 C72.612,89.75 72.676,89.767 72.704,89.816 L72.77,89.933 C72.799,89.982 72.787,90.054 72.745,90.093 L72.521,90.299 C72.479,90.337 72.487,90.388 72.538,90.413 L74.328,91.264 L74.548,89.267 C74.554,89.21 74.515,89.178 74.46,89.194 L74.148,89.293 C74.093,89.31 74.026,89.284 73.997,89.234 L73.932,89.118 C73.903,89.068 73.921,89.005 73.97,88.976 L75.401,88.162 C75.45,88.134 75.514,88.151 75.542,88.2 L75.608,88.317 C75.637,88.366 75.624,88.437 75.582,88.475 L75.255,88.762 C75.212,88.801 75.172,88.877 75.166,88.933 L74.889,91.473 L77.67,92.768 C77.722,92.792 77.809,92.798 77.864,92.781 L78.248,92.66 C78.302,92.643 78.369,92.67 78.398,92.72 L78.464,92.836 C78.492,92.885 78.474,92.949 78.425,92.977 L76.612,94.011 C76.562,94.038 76.499,94.021 76.471,93.971 L76.404,93.855 C76.376,93.805 76.388,93.734 76.43,93.696 L76.674,93.476 C76.716,93.439 76.709,93.387 76.658,93.363 L74.568,92.362 L74.314,94.699 C74.308,94.756 74.348,94.788 74.402,94.772 L74.7,94.68 C74.754,94.664 74.822,94.69 74.85,94.74 L74.917,94.856 C74.945,94.906 74.928,94.969 74.878,94.998 L73.44,95.816 C73.391,95.845 73.327,95.827 73.299,95.778 L73.233,95.662 C73.204,95.612 73.217,95.541 73.259,95.503 L73.586,95.216 C73.629,95.179 73.669,95.101 73.676,95.045 z" fill="#FFFFFE"/>
      <path d="M80.236,84.524 C80.274,84.567 80.276,84.639 80.241,84.683 L79.971,85.033 C79.936,85.078 79.939,85.15 79.976,85.192 L82.985,88.603 C83.023,88.646 83.093,88.658 83.143,88.628 L83.523,88.404 C83.571,88.376 83.642,88.386 83.68,88.429 L83.769,88.529 C83.806,88.572 83.802,88.637 83.759,88.675 L82.213,90.04 C82.17,90.078 82.104,90.074 82.066,90.031 L81.978,89.93 C81.94,89.888 81.938,89.816 81.973,89.771 L82.243,89.422 C82.278,89.378 82.276,89.305 82.238,89.262 L79.229,85.851 C79.192,85.808 79.121,85.796 79.071,85.826 L78.692,86.05 C78.642,86.08 78.571,86.068 78.534,86.025 L78.445,85.925 C78.408,85.882 78.412,85.817 78.454,85.779 L80.002,84.415 C80.044,84.377 80.11,84.381 80.148,84.423 z" fill="#FFFFFE"/>
      <path d="M25.42,30.493 C25.381,30.535 25.352,30.56 25.352,30.56 L23.709,29.007 L24.003,28.702 C24.043,28.66 24.108,28.594 24.149,28.555 C24.149,28.555 24.328,28.38 24.454,28.286 C24.58,28.193 24.709,28.133 24.84,28.104 C24.972,28.077 25.107,28.086 25.247,28.132 C25.386,28.179 25.53,28.273 25.68,28.415 C26.006,28.725 26.16,29.027 26.143,29.321 C26.125,29.615 25.752,30.126 25.752,30.126 C25.718,30.172 25.658,30.243 25.619,30.284 z M28.93,31.07 C28.986,31.08 29.064,31.056 29.103,31.014 L29.963,30.11 C30.003,30.068 30.001,30.003 29.96,29.964 L29.862,29.871 C29.821,29.831 29.749,29.826 29.702,29.858 L29.375,30.086 C29.328,30.119 29.244,30.138 29.188,30.129 L26.62,29.711 C26.564,29.702 26.537,29.652 26.561,29.6 C26.561,29.6 26.876,28.923 26.863,28.57 C26.85,28.218 26.692,27.897 26.39,27.609 C26.174,27.404 25.956,27.285 25.737,27.251 C25.517,27.219 25.303,27.241 25.094,27.319 C24.885,27.396 24.684,27.514 24.49,27.67 C24.296,27.826 24.022,28.097 24.022,28.097 C23.982,28.137 23.916,28.203 23.877,28.244 L22.366,29.831 C22.327,29.873 22.329,29.938 22.37,29.977 L22.467,30.07 C22.508,30.109 22.58,30.115 22.627,30.082 L22.989,29.821 C23.036,29.788 23.107,29.793 23.149,29.832 L26.452,32.976 C26.493,33.015 26.502,33.087 26.471,33.135 L26.229,33.51 C26.198,33.557 26.207,33.629 26.248,33.669 L26.345,33.762 C26.387,33.801 26.452,33.799 26.492,33.758 L27.907,32.27 C27.946,32.229 27.944,32.164 27.903,32.124 L27.806,32.031 C27.764,31.992 27.693,31.987 27.647,32.02 L27.29,32.275 C27.243,32.307 27.171,32.304 27.13,32.264 L25.608,30.815 L25.834,30.578 C25.873,30.537 25.951,30.512 26.007,30.522 z" fill="#FFFFFE"/>
    </g>
  </g>
</svg>
