<?xml version="1.0" encoding="UTF-8" standalone="no"?>
<svg
   xmlns:dc="http://purl.org/dc/elements/1.1/"
   xmlns:cc="http://creativecommons.org/ns#"
   xmlns:rdf="http://www.w3.org/1999/02/22-rdf-syntax-ns#"
   xmlns:svg="http://www.w3.org/2000/svg"
   xmlns="http://www.w3.org/2000/svg"
   viewBox="0 0 768 768"
   height="768"
   width="768"
   xml:space="preserve"
   id="svg2405"
   version="1.1"><metadata
     id="metadata2411"><rdf:RDF><cc:Work
         rdf:about=""><dc:format>image/svg+xml</dc:format><dc:type
           rdf:resource="http://purl.org/dc/dcmitype/StillImage" /><dc:title></dc:title></cc:Work></rdf:RDF></metadata><defs
     id="defs2409"><clipPath
       id="clipPath2563"
       clipPathUnits="userSpaceOnUse"><path
         id="path2561"
         d="M 720,633 V 5069 H 5184 V 633 Z" /></clipPath></defs><g
     transform="matrix(1.3333333,0,0,-1.3333333,0,768)"
     id="g2413"><g
       transform="scale(0.1)"
       id="g2415"><path
         id="path2417"
         style="fill:#ffffff;fill-opacity:1;fill-rule:nonzero;stroke:none"
         d="M 0,0 H 5760 V 5760 H 0 Z" /><path
         id="path2419"
         style="fill:#ffffff;fill-opacity:1;fill-rule:nonzero;stroke:none"
         d="m 720,633.59 h 4463.98 v 4435.2 H 720 Z" /><path
         id="path2421"
         style="fill:none;stroke:#000000;stroke-width:8;stroke-linecap:butt;stroke-linejoin:round;stroke-miterlimit:10;stroke-dasharray:none;stroke-opacity:1"
         d="m 777.461,633.59 v -35" /><g
         transform="scale(10)"
         id="g2423"><text
           id="text2427"
           style="font-variant:normal;font-weight:normal;font-size:12px;font-family:'Liberation Sans';-inkscape-font-specification:LiberationSans;writing-mode:lr-tb;fill:#000000;fill-opacity:1;fill-rule:nonzero;stroke:none"
           transform="matrix(1,0,0,-1,64.3785,47.2352)"><tspan
             id="tspan2425"
             y="0"
             x="0 7.6321559 11.448234 19.080391">0.00</tspan></text>
</g><path
         id="path2429"
         style="fill:none;stroke:#000000;stroke-width:8;stroke-linecap:butt;stroke-linejoin:round;stroke-miterlimit:10;stroke-dasharray:none;stroke-opacity:1"
         d="m 1330.16,633.59 v -35" /><g
         transform="scale(10)"
         id="g2431"><text
           id="text2435"
           style="font-variant:normal;font-weight:normal;font-size:12px;font-family:'Liberation Sans';-inkscape-font-specification:LiberationSans;writing-mode:lr-tb;fill:#000000;fill-opacity:1;fill-rule:nonzero;stroke:none"
           transform="matrix(1,0,0,-1,119.649,47.2352)"><tspan
             id="tspan2433"
             y="0"
             x="0 7.6321559 11.448234 19.080391">0.05</tspan></text>
</g><path
         id="path2437"
         style="fill:none;stroke:#000000;stroke-width:8;stroke-linecap:butt;stroke-linejoin:round;stroke-miterlimit:10;stroke-dasharray:none;stroke-opacity:1"
         d="m 1882.85,633.59 v -35" /><g
         transform="scale(10)"
         id="g2439"><text
           id="text2443"
           style="font-variant:normal;font-weight:normal;font-size:12px;font-family:'Liberation Sans';-inkscape-font-specification:LiberationSans;writing-mode:lr-tb;fill:#000000;fill-opacity:1;fill-rule:nonzero;stroke:none"
           transform="matrix(1,0,0,-1,174.92,47.2352)"><tspan
             id="tspan2441"
             y="0"
             x="0 7.6321559 11.448234 19.080391">0.10</tspan></text>
</g><path
         id="path2445"
         style="fill:none;stroke:#000000;stroke-width:8;stroke-linecap:butt;stroke-linejoin:round;stroke-miterlimit:10;stroke-dasharray:none;stroke-opacity:1"
         d="m 2435.59,633.59 v -35" /><g
         transform="scale(10)"
         id="g2447"><text
           id="text2451"
           style="font-variant:normal;font-weight:normal;font-size:12px;font-family:'Liberation Sans';-inkscape-font-specification:LiberationSans;writing-mode:lr-tb;fill:#000000;fill-opacity:1;fill-rule:nonzero;stroke:none"
           transform="matrix(1,0,0,-1,230.191,47.2352)"><tspan
             id="tspan2449"
             y="0"
             x="0 7.6321559 11.448234 19.080391">0.15</tspan></text>
</g><path
         id="path2453"
         style="fill:none;stroke:#000000;stroke-width:8;stroke-linecap:butt;stroke-linejoin:round;stroke-miterlimit:10;stroke-dasharray:none;stroke-opacity:1"
         d="m 2988.28,633.59 v -35" /><g
         transform="scale(10)"
         id="g2455"><text
           id="text2459"
           style="font-variant:normal;font-weight:normal;font-size:12px;font-family:'Liberation Sans';-inkscape-font-specification:LiberationSans;writing-mode:lr-tb;fill:#000000;fill-opacity:1;fill-rule:nonzero;stroke:none"
           transform="matrix(1,0,0,-1,285.461,47.2352)"><tspan
             id="tspan2457"
             y="0"
             x="0 7.6321559 11.448234 19.080391">0.20</tspan></text>
</g><path
         id="path2461"
         style="fill:none;stroke:#000000;stroke-width:8;stroke-linecap:butt;stroke-linejoin:round;stroke-miterlimit:10;stroke-dasharray:none;stroke-opacity:1"
         d="m 3540.98,633.59 v -35" /><g
         transform="scale(10)"
         id="g2463"><text
           id="text2467"
           style="font-variant:normal;font-weight:normal;font-size:12px;font-family:'Liberation Sans';-inkscape-font-specification:LiberationSans;writing-mode:lr-tb;fill:#000000;fill-opacity:1;fill-rule:nonzero;stroke:none"
           transform="matrix(1,0,0,-1,340.732,47.2352)"><tspan
             id="tspan2465"
             y="0"
             x="0 7.6321559 11.448234 19.080391">0.25</tspan></text>
</g><path
         id="path2469"
         style="fill:none;stroke:#000000;stroke-width:8;stroke-linecap:butt;stroke-linejoin:round;stroke-miterlimit:10;stroke-dasharray:none;stroke-opacity:1"
         d="m 4093.71,633.59 v -35" /><g
         transform="scale(10)"
         id="g2471"><text
           id="text2475"
           style="font-variant:normal;font-weight:normal;font-size:12px;font-family:'Liberation Sans';-inkscape-font-specification:LiberationSans;writing-mode:lr-tb;fill:#000000;fill-opacity:1;fill-rule:nonzero;stroke:none"
           transform="matrix(1,0,0,-1,396.003,47.2352)"><tspan
             id="tspan2473"
             y="0"
             x="0 7.6321559 11.448234 19.080391">0.30</tspan></text>
</g><path
         id="path2477"
         style="fill:none;stroke:#000000;stroke-width:8;stroke-linecap:butt;stroke-linejoin:round;stroke-miterlimit:10;stroke-dasharray:none;stroke-opacity:1"
         d="m 4646.41,633.59 v -35" /><g
         transform="scale(10)"
         id="g2479"><text
           id="text2483"
           style="font-variant:normal;font-weight:normal;font-size:12px;font-family:'Liberation Sans';-inkscape-font-specification:LiberationSans;writing-mode:lr-tb;fill:#000000;fill-opacity:1;fill-rule:nonzero;stroke:none"
           transform="matrix(1,0,0,-1,451.274,47.2352)"><tspan
             id="tspan2481"
             y="0"
             x="0 7.6321559 11.448234 19.080391">0.35</tspan></text>
</g><path
         id="path2485"
         style="fill:none;stroke:#000000;stroke-width:8;stroke-linecap:butt;stroke-linejoin:round;stroke-miterlimit:10;stroke-dasharray:none;stroke-opacity:1"
         d="M 720,759.262 H 685" /><g
         transform="scale(10)"
         id="g2487"><text
           id="text2491"
           style="font-variant:normal;font-weight:normal;font-size:12px;font-family:'Liberation Sans';-inkscape-font-specification:LiberationSans;writing-mode:lr-tb;fill:#000000;fill-opacity:1;fill-rule:nonzero;stroke:none"
           transform="matrix(1,0,0,-1,19.1563,71.3645)"><tspan
             id="tspan2489"
             y="0"
             x="0 7.6321559 15.264312 22.896467 30.528624 38.160782">100000</tspan></text>
</g><path
         id="path2493"
         style="fill:none;stroke:#000000;stroke-width:8;stroke-linecap:butt;stroke-linejoin:round;stroke-miterlimit:10;stroke-dasharray:none;stroke-opacity:1"
         d="M 720,1289.65 H 685" /><g
         transform="scale(10)"
         id="g2495"><text
           id="text2499"
           style="font-variant:normal;font-weight:normal;font-size:12px;font-family:'Liberation Sans';-inkscape-font-specification:LiberationSans;writing-mode:lr-tb;fill:#000000;fill-opacity:1;fill-rule:nonzero;stroke:none"
           transform="matrix(1,0,0,-1,19.1563,124.403)"><tspan
             id="tspan2497"
             y="0"
             x="0 7.6321559 15.264312 22.896467 30.528624 38.160782">150000</tspan></text>
</g><path
         id="path2501"
         style="fill:none;stroke:#000000;stroke-width:8;stroke-linecap:butt;stroke-linejoin:round;stroke-miterlimit:10;stroke-dasharray:none;stroke-opacity:1"
         d="M 720,1820.04 H 685" /><g
         transform="scale(10)"
         id="g2503"><text
           id="text2507"
           style="font-variant:normal;font-weight:normal;font-size:12px;font-family:'Liberation Sans';-inkscape-font-specification:LiberationSans;writing-mode:lr-tb;fill:#000000;fill-opacity:1;fill-rule:nonzero;stroke:none"
           transform="matrix(1,0,0,-1,19.1563,177.442)"><tspan
             id="tspan2505"
             y="0"
             x="0 7.6321559 15.264312 22.896467 30.528624 38.160782">200000</tspan></text>
</g><path
         id="path2509"
         style="fill:none;stroke:#000000;stroke-width:8;stroke-linecap:butt;stroke-linejoin:round;stroke-miterlimit:10;stroke-dasharray:none;stroke-opacity:1"
         d="M 720,2350.43 H 685" /><g
         transform="scale(10)"
         id="g2511"><text
           id="text2515"
           style="font-variant:normal;font-weight:normal;font-size:12px;font-family:'Liberation Sans';-inkscape-font-specification:LiberationSans;writing-mode:lr-tb;fill:#000000;fill-opacity:1;fill-rule:nonzero;stroke:none"
           transform="matrix(1,0,0,-1,19.1563,230.48)"><tspan
             id="tspan2513"
             y="0"
             x="0 7.6321559 15.264312 22.896467 30.528624 38.160782">250000</tspan></text>
</g><path
         id="path2517"
         style="fill:none;stroke:#000000;stroke-width:8;stroke-linecap:butt;stroke-linejoin:round;stroke-miterlimit:10;stroke-dasharray:none;stroke-opacity:1"
         d="M 720,2880.82 H 685" /><g
         transform="scale(10)"
         id="g2519"><text
           id="text2523"
           style="font-variant:normal;font-weight:normal;font-size:12px;font-family:'Liberation Sans';-inkscape-font-specification:LiberationSans;writing-mode:lr-tb;fill:#000000;fill-opacity:1;fill-rule:nonzero;stroke:none"
           transform="matrix(1,0,0,-1,19.1563,283.519)"><tspan
             id="tspan2521"
             y="0"
             x="0 7.6321559 15.264312 22.896467 30.528624 38.160782">300000</tspan></text>
</g><path
         id="path2525"
         style="fill:none;stroke:#000000;stroke-width:8;stroke-linecap:butt;stroke-linejoin:round;stroke-miterlimit:10;stroke-dasharray:none;stroke-opacity:1"
         d="M 720,3411.21 H 685" /><g
         transform="scale(10)"
         id="g2527"><text
           id="text2531"
           style="font-variant:normal;font-weight:normal;font-size:12px;font-family:'Liberation Sans';-inkscape-font-specification:LiberationSans;writing-mode:lr-tb;fill:#000000;fill-opacity:1;fill-rule:nonzero;stroke:none"
           transform="matrix(1,0,0,-1,19.1563,336.558)"><tspan
             id="tspan2529"
             y="0"
             x="0 7.6321559 15.264312 22.896467 30.528624 38.160782">350000</tspan></text>
</g><path
         id="path2533"
         style="fill:none;stroke:#000000;stroke-width:8;stroke-linecap:butt;stroke-linejoin:round;stroke-miterlimit:10;stroke-dasharray:none;stroke-opacity:1"
         d="M 720,3941.6 H 685" /><g
         transform="scale(10)"
         id="g2535"><text
           id="text2539"
           style="font-variant:normal;font-weight:normal;font-size:12px;font-family:'Liberation Sans';-inkscape-font-specification:LiberationSans;writing-mode:lr-tb;fill:#000000;fill-opacity:1;fill-rule:nonzero;stroke:none"
           transform="matrix(1,0,0,-1,19.1563,389.596)"><tspan
             id="tspan2537"
             y="0"
             x="0 7.6321559 15.264312 22.896467 30.528624 38.160782">400000</tspan></text>
</g><path
         id="path2541"
         style="fill:none;stroke:#000000;stroke-width:8;stroke-linecap:butt;stroke-linejoin:round;stroke-miterlimit:10;stroke-dasharray:none;stroke-opacity:1"
         d="M 720,4471.99 H 685" /><g
         transform="scale(10)"
         id="g2543"><text
           id="text2547"
           style="font-variant:normal;font-weight:normal;font-size:12px;font-family:'Liberation Sans';-inkscape-font-specification:LiberationSans;writing-mode:lr-tb;fill:#000000;fill-opacity:1;fill-rule:nonzero;stroke:none"
           transform="matrix(1,0,0,-1,19.1563,442.635)"><tspan
             id="tspan2545"
             y="0"
             x="0 7.6321559 15.264312 22.896467 30.528624 38.160782">450000</tspan></text>
</g><path
         id="path2549"
         style="fill:none;stroke:#000000;stroke-width:8;stroke-linecap:butt;stroke-linejoin:round;stroke-miterlimit:10;stroke-dasharray:none;stroke-opacity:1"
         d="M 720,5002.34 H 685" /><g
         transform="scale(10)"
         id="g2551"><text
           id="text2555"
           style="font-variant:normal;font-weight:normal;font-size:12px;font-family:'Liberation Sans';-inkscape-font-specification:LiberationSans;writing-mode:lr-tb;fill:#000000;fill-opacity:1;fill-rule:nonzero;stroke:none"
           transform="matrix(1,0,0,-1,19.1563,495.674)"><tspan
             id="tspan2553"
             y="0"
             x="0 7.6321559 15.264312 22.896467 30.528624 38.160782">500000</tspan></text>
</g><g
         id="g2557"><g
           clip-path="url(#clipPath2563)"
           id="g2559"><path
             id="path2565"
             style="fill:none;stroke:#000000;stroke-width:15;stroke-linecap:square;stroke-linejoin:round;stroke-miterlimit:4;stroke-dasharray:none;stroke-opacity:1"
             d="m 777.461,759.262 238.869,28.629 223.71,29.019 209.65,29.422 196.68,29.797 184.65,30.242 173.55,30.621 163.24,31.059 153.67,31.48 144.81,31.879 136.52,32.34 128.87,32.77 121.76,33.25 115.08,33.71 108.9,34.22 103.17,34.68 97.77,35.24 92.73,35.74 88.05,36.29 83.67,36.91 79.61,37.5 75.78,38.17 72.23,38.82 68.87,39.54 65.78,40.31 62.81,41.09 60.12,41.99 57.54,42.86 55.11,43.86 52.89,44.89 50.79,46.01 48.78,47.19 46.92,48.51 45.16,49.89 43.51,51.36 41.99,52.97 40.51,54.69 39.1,56.56 37.78,58.56 36.56,60.74 35.31,63.09 34.22,65.62 33.12,68.36 32.08,71.33 31.09,74.57 30.08,78.05 29.18,81.83 28.28,85.94 27.34,90.43 26.53,95.31 25.7,100.67 24.84,106.48 24.03,112.89 23.24,119.92 22.46,127.7 21.72,136.25 20.9,145.7 20.15,156.21 19.42,167.93 18.63,181.02 17.93,195.82 13.08,159.92" /></g></g><path
         id="path2567"
         style="fill:none;stroke:#000000;stroke-width:8;stroke-linecap:square;stroke-linejoin:miter;stroke-miterlimit:10;stroke-dasharray:none;stroke-opacity:1"
         d="m 720,633.59 v 4435.2" /><path
         id="path2569"
         style="fill:none;stroke:#000000;stroke-width:8;stroke-linecap:square;stroke-linejoin:miter;stroke-miterlimit:10;stroke-dasharray:none;stroke-opacity:1"
         d="m 5183.98,633.59 v 4435.2" /><path
         id="path2571"
         style="fill:none;stroke:#000000;stroke-width:8;stroke-linecap:square;stroke-linejoin:miter;stroke-miterlimit:10;stroke-dasharray:none;stroke-opacity:1"
         d="M 720,633.59 H 5183.98" /><path
         id="path2573"
         style="fill:none;stroke:#000000;stroke-width:8;stroke-linecap:square;stroke-linejoin:miter;stroke-miterlimit:10;stroke-dasharray:none;stroke-opacity:1"
         d="M 720,5068.79 H 5183.98" /><g
         transform="scale(10)"
         id="g2575"><text
           id="text2579"
           style="font-variant:normal;font-size:17.28000069px;font-family:f-1;-inkscape-font-specification:f-1-0;writing-mode:lr-tb;fill:#000000;fill-opacity:1;fill-rule:nonzero;stroke:none"
           transform="matrix(1,0,0,-1,235.684,523.38)"><tspan
             id="tspan2577"
             y="0"
             x="0 10.8864 20.80512 29.44512 38.085121 48.003841 52.807678 65.283836 74.891518 82.563843 88.007042 97.614723 107.2224 112.6656 121.3056 126.10944">Speed Variable I</tspan></text>
<text
           id="text2583"
           style="font-variant:normal;font-size:17.28000069px;font-family:f-1;-inkscape-font-specification:f-1-0;writing-mode:lr-tb;fill:#000000;fill-opacity:1;fill-rule:nonzero;stroke:none"
           transform="matrix(0,1,1,0,6.00898,248.296)"><tspan
             id="tspan2581"
             y="0"
             x="0 10.8864 20.80512 29.44512 38.085121 48.003841 52.807678 58.56192 73.923843 78.727676 86.728317">Speed [m/s]</tspan></text>
<text
           id="text2587"
           style="font-variant:normal;font-size:17.28000069px;font-family:f-1;-inkscape-font-specification:f-1-0;writing-mode:lr-tb;fill:#000000;fill-opacity:1;fill-rule:nonzero;stroke:none"
           transform="matrix(1,0,0,-1,263.066,20.8816)"><tspan
             id="tspan2585"
             y="0"
             x="0 11.52576 16.96896 32.330879 40.970879 45.774719 51.528961 59.529598">Time [s]</tspan></text>
</g></g></g></svg>